<?xml version="1.0" encoding="UTF-8"?>
<svg id="Layer_1" xmlns="http://www.w3.org/2000/svg" width="543.005" height="120" version="1.1" viewBox="0 0 543.005 120">
  <!-- Generator: Adobe Illustrator 29.6.1, SVG Export Plug-In . SVG Version: 2.1.1 Build 9)  -->
  <g>
    <g>
      <path d="M13.485,84.312s2.58-1.913,2.829-3.077c.25-1.167-1.582-5.242-3.661-7.156-2.079-1.913-5.989-1.998-6.905,0-.914,1.996-1.081,3.01-3.241,5.247-2.159,2.237-2.968,2.506-1.542,4.472,1.426,1.966,9.562,10.101,19.97,13.262,1.972.6,6.709,2.313,14.188,2.313s17.658-2.044,27.141-9.138c1.347-1.008,7.545-5.942,7.789-8.135.192-1.735-2.005-3.084-3.316-5.397-1.311-2.313-1.658-6.13-7.055-4.086-.436.164-1.476.719-2.004,1.618-.529.899-1.968,2.814-3.008,3.933-1.042,1.118-.848,2.505-.077,3.431.456.545,2.661,2.35,2.661,2.35-6.709,4.436-12.132,7.113-22.015,7.326-1.043.021-11.335.617-21.753-6.966Z" fill="#fff"/>
      <path d="M6.551,55.651s-.128,13.851,10.483,24.461c8.611,8.611,18.096,10.235,18.096,10.235v-46.676H6.551v11.98Z" fill="#00b38c"/>
      <path d="M63.709,55.651s.128,13.851-10.483,24.461c-8.612,8.611-18.096,10.235-18.096,10.235v-46.676h28.579v11.98Z" fill="#009cd5"/>
      <rect x="6.543" y="20.609" width="57.166" height="23.061" fill="#ee4023"/>
      <path d="M54.765,75.745h-15.59s-.342,3.535-3.862,3.457c-3.934-.088-3.862-3.457-3.862-3.457h-15.315v-27.872h38.628v27.872Z" fill="#ffd430"/>
      <path d="M20.698,46.604s1.56,1.154,3.754.835c2.194-.316,6.41-2.54,8.836-1.269,2.426,1.269,2.079.925,2.079.925,0,0,2.513-2.599,6.439-1.618,3.928.982,3.869,2.093,5.863,1.877,2.05-.223,2.425-.864,2.425-.864v24.098s-1.414,1.544-4.505.907c-3.09-.635-5.428-2.916-10.279.289,0,0-2.743-1.964-5.631-1.472-2.888.491-5.874,2.776-9.276.941l.063-24.157.231-.491Z" fill="#fff"/>
      <path d="M54.819,39.189c.663-.014,1.138.183,1.498.48-.021.038-.041.08-.061.118-.439.14-.77.6-1.138.541-.267-.083-.247-.15-.418-.3-.011-.362.025-.62.12-.839Z" fill="#ffd300"/>
      <path d="M11.089,36.493c.94.16,1.642,1.247,2.097,1.917v.061h-.301c-.949-.287-1.806-.29-2.156-1.199.104-.362.181-.529.359-.778Z" fill="#ffd300"/>
      <path d="M20.345,26.25c-.08-.021-.28-.032-.36-.051-.16.526.244,1.107.749,1.307.139.021.279.041.419.061.12-.178.239-.36.36-.539.049-.109.02-.211-.23-.16,0,0-.37-.389-.938-.619Z" fill="#ffd300"/>
      <rect x="35.005" y="47.073" width=".375" height="24.678" fill="#785342"/>
      <path d="M63.453,43.334H6.918v-22.438h56.535v22.438ZM63.522,53.247c0,13.616-6.861,23.776-13.929,29.595-5.731,4.716-11.898,6.72-13.927,7.062l-.073-10.485c-.224-.013-.435-.056-.624-.123l.016,10.6c-5.392-.395-28.066-10.529-28.066-36.649v-9.289h28.002l-.006,3.476c.169.274.405.325.631.15v-3.626h27.978v9.289ZM6.293,20.274v32.972c0,14.493,6.802,23.669,12.507,28.812,6.796,6.127,15.164,8.651,16.34,8.651,1.382,0,8.391-2.572,12.718-5.668,7.773-5.561,15.967-15.761,16.217-31.796V20.274H6.293Z" fill="#3d1e0b"/>
      <path d="M70.233,81.05c-.202-.655-.509-1.02-1.067-1.684-.45-.533-1.065-1.263-1.955-2.524-.663-.939-1.048-1.765-1.39-2.492-.619-1.327-1.066-2.285-2.64-2.551-1.826-.311-3.384.335-4.719,1.323-.422.695-.86,1.365-1.314,2.014,1.591-1.666,3.504-3.135,5.928-2.722,1.251.21,1.581.918,2.18,2.2.333.714.749,1.602,1.444,2.586.907,1.285,1.532,2.026,1.988,2.569.538.639.784.929.949,1.465.238.772.132,1.816-2.231,4.179-6.413,6.413-14.16,10.689-23.026,12.709-3.221.733-9.271.985-9.332.988-.035-.003-6.085-.255-9.306-.988-13.074-2.978-19.97-9.885-22.236-12.154l-.117-.116c-2.133-2.133-2.986-3.033-2.711-3.932.135-.434.45-.733.971-1.228.614-.579,1.454-1.374,2.522-2.886.689-.977,1.11-1.865,1.448-2.58.598-1.266.96-2.03,2.218-2.243,1.95-.33,3.257.325,4.42,1.392-.293-.456-.581-.925-.861-1.406-.996-.571-2.17-.855-3.663-.601-1.578.268-2.039,1.242-2.678,2.591-.344.73-.735,1.554-1.393,2.487-1.032,1.46-1.847,2.232-2.442,2.793-.555.526-.956.905-1.138,1.497-.398,1.293.693,2.384,2.865,4.555l.117.118c2.298,2.301,9.29,9.302,22.539,12.322,3.277.746,9.196.992,9.444,1.001.276-.01,6.194-.255,9.471-1.001,8.983-2.047,16.832-6.381,23.329-12.876,2.126-2.127,2.796-3.474,2.386-4.806ZM14.998,80.393c.014.641-.336.993-.689,1.057-.394.069-.976-.203-1.319-1.197-.57-1.649-1.877-3.776-1.932-3.866l-.234-.379s-2.158,2.742-2.558,3.249c-.861-1.169-1.356-2.277-1.356-3.235,0-.046,0-.093.003-.139.041-.823.308-1.344.811-1.593,1.137-.561,3.233.405,3.665.705,2.617,1.802,3.581,3.968,3.61,5.399ZM60.996,76.174l-.236.182c-.062.048-1.526,1.19-2.413,3.163-.399.887-1.364,1.539-2.109,1.424-.638-.097-.842-.717-.901-1.22-.176-1.499,1.142-3.374,3.526-5.013.536-.37,3.064-1.598,4.287-.992.455.226.694.689.729,1.419.001.046.003.092.003.14,0,.89-.403,1.908-1.119,2.988-.364-.431-1.767-2.092-1.767-2.092ZM7.448,73.73c-.716.352-1.105,1.067-1.159,2.121-.195,3.87,6.62,9.778,15.191,13.174,4.415,1.747,8.859,2.597,13.58,2.597,5.035,0,10.67-1.271,13.637-2.525,7.936-3.36,16.017-9.511,15.805-13.989-.047-.961-.407-1.618-1.075-1.947-1.617-.804-4.462.721-4.917,1.035-2.617,1.8-3.999,3.841-3.792,5.601.117.998.636,1.642,1.425,1.763,1.034.16,2.251-.625,2.773-1.786.623-1.384,1.57-2.342,1.998-2.73.293.346,1.264,1.497,1.473,1.744-1.15,1.546-2.915,3.198-5.098,4.788-.292-.226-1.822-1.424-2.45-2.103-.728-.784-.786-1.885-.216-3.101-.324.371-.65.735-.982,1.086-.125.928.116,1.767.739,2.44.594.641,1.88,1.665,2.379,2.057-2.388,1.677-5.234,3.269-8.304,4.566-2.908,1.231-8.442,2.478-13.393,2.478-4.642,0-9.01-.835-13.35-2.554-2.857-1.132-5.54-2.567-7.816-4.107.505-.459,1.664-1.518,2.231-2.13.509-.552.706-1.301.613-2.152-.283-.295-.568-.603-.851-.918.397,1.083.344,2.038-.221,2.647-.588.634-1.885,1.814-2.3,2.189-1.956-1.378-3.581-2.824-4.711-4.204.229-.29,1.685-2.14,2.1-2.667.403.69,1.236,2.176,1.644,3.356.472,1.368,1.383,1.72,2.018,1.607.727-.131,1.221-.823,1.204-1.685-.033-1.583-1.068-3.965-3.88-5.898-.378-.261-2.773-1.502-4.295-.751Z" fill="#3d1e0b"/>
      <path d="M7.099,82.239l1.045-.533s.249-.083-.47-.112c-.075-.694-.599-1.425-1.845-1.291-1.247.134-.779,1.515-.713,2.07.068.558.023,2.114-.867,2.047-.891-.067-.801-1.601-.712-1.98-.379.201-1.135.695-1.201.735-.03.017.018.046.128.04.152-.009.388-.049.385.045-.003.07.488,1.496,1.444,1.429.958-.067,1.581-.558,1.559-1.736-.022-1.178-.465-2.234.314-2.366.779-.132,1.143,1.028.933,1.653Z" fill="#231f20"/>
      <path d="M7.156,84.679c.864-.59,1.746-1.189,1.746-1.189l-.819,1.968-.927-.778ZM9.741,83.162l-.532-.41s-3.587,2.377-3.956,2.623c-.084.056-.325.04-.497-.018-.129-.041-.129.025-.075.075.067.059.784.738.863.799.077.064.116-.006.074-.061-.043-.057-.234-.265-.051-.408.077-.059.637-.434,1.315-.898l1.059.933-.659,1.585c-.057.124-.421-.032-.421-.032,0,0-.13.002-.037.089.278.262.943.84,1,.89.078.067.151-.022.073-.088-.096-.081-.151-.238.123-.899.287-.697,1.72-4.18,1.72-4.18Z" fill="#231f20"/>
      <path d="M28.601,94.966c.452-.944,1-1.907,1-1.907l.395,1.999-1.396-.092ZM30.016,92.278l-.511-.032s-2.112,3.887-2.308,4.284c-.045.091-.261.199-.439.234-.133.029-.098.088-.027.102.087.018,1.048.246,1.147.258.099.016.096-.064.033-.089-.065-.027-.336-.11-.248-.327.038-.091.403-.69.757-1.433l1.625.147.307,1.626c.033.132-.348.239-.345.239,0,0-.101.084.026.094.381.029,1.26.061,1.338.062.103.003.103-.112,0-.115-.126-.003-.283.073-.399-.634-.124-.767-.956-4.417-.956-4.417Z" fill="#231f20"/>
      <path d="M8.122,88.448s.827.604.894.65c.066.048.132.01.076-.078-.057-.089-.272-.263.179-.818.451-.552,2.295-3.093,2.295-3.093,0,0,1.572.944.819,2.178-.663,1.086-2.009.347-2.417-.026-.246-.226-.246.102-.246.102,0,0,.532.472,1.004.635.471.164,1.7.408,2.295-.533.594-.944-.082-1.907-1.045-2.458-.963-.555-1.045-.657-1.045-.657,0,0-.12.026.004.147.125.121.176.261.059.421-.117.159-2.305,3.182-2.461,3.37-.156.187-.413.013-.41.16Z" fill="#231f20"/>
      <path d="M13.995,86.579s.276.246,0,.674c-.277.429-2.116,3.235-2.116,3.235,0,0-.174.226-.52.115-.049-.016-.142.032-.024.1.27.158.782.489.991.627.153.1.059-.099.059-.099,0,0-.168-.191.015-.467.184-.276,2.008-3.187,2.207-3.433.199-.247.336-.179.46-.121.124.059.144-.027.058-.083-.085-.053-1.048-.619-1.119-.657-.07-.04-.043.062-.043.062" fill="#231f20"/>
      <path d="M15.486,87.482s2.389,1.26,2.609,1.323c0,0-.364.78-.428.871-.065.091-.104-.245-.039-.622-.623-.403-1.558-.832-1.558-.832l-1.934,3.621s1.338.786,1.491.847c.299.118.613-.418.703-.392.091.027-.403.794-.467.896-.065.105-2.258-1.116-2.895-1.429-.156-.076-.078-.167.221-.115.298.051.298.064.533-.312.233-.376,1.739-3.166,1.83-3.323.091-.156-.312-.636-.065-.533Z" fill="#231f20"/>
      <path d="M14.941,89.948s.766.403.974.52c.207.116.415.038.531-.156.117-.194.155-.078.014.196-.143.271-.376.673-.481.842-.103.169-.22.131-.103-.131.116-.258-.104-.376-.481-.571-.376-.195-.701-.402-.701-.402l.247-.298Z" fill="#231f20"/>
      <path d="M35.044,92.612s2.695-.166,2.917-.223c0,0,.094.853.086.963-.008.112-.216-.156-.357-.51-.659.016-1.762.099-1.762.099l-.014,4.34s1.682-.077,1.846-.096c.319-.035.616-.981.71-1,.092-.019-.187,1.435-.187,1.435,0,0-2.75.115-3.438.136-.174.003-.147-.113.141-.207.288-.092.307-.169.338-.612.03-.44.056-3.723.053-3.903-.003-.179-.597-.381-.332-.421Z" fill="#231f20"/>
      <path d="M35.815,94.698s.864-.045,1.103-.049c.238-.005.377-.178.379-.407,0-.226.094-.145.111.163.015.306.02.772.016.969-.002.198-.123.225-.155-.057-.033-.284-.281-.271-.705-.247-.423.024-.808.011-.808.011l.059-.383Z" fill="#231f20"/>
      <path d="M16.209,93.327s.914.386,1.161.499c.19.027.15-.097-.051-.296-.049-.049-.035-.231.12-.505.144-.255,1.243-2.529,1.243-2.529l.647,4.136.792.262s1.433-3.68,1.567-4.024c.134-.344.33-.274.491-.239.162.035.176-.113.014-.169-.162-.057-.997-.301-1.173-.365-.176-.062-.127.113.022.183.147.07.167.182.104.415-.063.23-1.193,3.265-1.193,3.265l-.717-4.46s-.603-.373-.745-.457c-.14-.085-.183.07-.049.188.134.121.127.233.029.459-.098.223-1.68,3.31-1.771,3.46-.092.147-.578-.016-.49.179Z" fill="#231f20"/>
      <path d="M22.676,90.68l-.263.934c.381-.462.829-.422.829-.422,0,0,.23.059.533.142-.179.62-1.046,3.622-1.152,3.941-.119.354-.463.161-.512.29-.023.061-.007.083.133.116.172.04.796.269.922.304.128.035.144.054.16.008.068-.188-.293-.19-.178-.547.045-.14,1.025-3.479,1.168-3.964.287.083.565.167.741.236.171.065.383.328.408.762.092-.367.29-.934.29-.934l-3.081-.867Z" fill="#231f20"/>
      <path d="M38.856,92.514l.108.963c.179-.571.609-.702.609-.702,0,0,.619-.065.93-.105.069.644.399,3.75.421,4.085.024.375-.377.328-.365.465.006.065.028.07.171.048.187-.03.89-.112,1.021-.134.13-.022.152-.014.147-.061-.02-.201-.395.017-.422-.356-.011-.148-.363-3.61-.414-4.112.297-.032.751-.152,1.099-.195.182-.022.443.108.631.501-.054-.376-.085-.976-.085-.976l-3.853.577Z" fill="#231f20"/>
      <path d="M25.303,96.477l1.211.246s.095-.112-.124-.195c-.032-.013-.132-.144-.081-.367,0,0,.681-3.591.732-3.844.051-.254.173-.234.304-.223.132.01.255-.164-.009-.214-.265-.053-.774-.132-1.028-.183-.182-.037-.214.124-.123.163.123.051.316.204.285.376-.032.18-.681,3.468-.752,3.803-.05.236-.163.336-.346.295-.132-.03-.177.118-.07.144Z" fill="#231f20"/>
      <path d="M33.255,95.077c0,.21-.17.381-.379.381-.211,0-.381-.171-.381-.381s.17-.379.381-.379c.21,0,.379.169.379.379Z" fill="#231f20"/>
      <path d="M44.671,94.148c0,.21-.171.381-.38.381s-.381-.171-.381-.381c0-.209.171-.381.381-.381s.38.172.38.381Z" fill="#231f20"/>
      <path d="M44.835,91.436l1.493-.332s.171.054-.095.176c-.174.078-.126.121-.066.206.066.094,2.275,3.541,2.275,3.541l.308-4.405s-.097-.1-.333-.001c-.066.032-.16-.032-.059-.105.102-.075.809-.383.893-.419.083-.037.244.022.052.147-.153.099-.14.164-.152.241-.013.078-.411,4.923-.411,4.923l-.688.271-2.653-4.09s-.209-.037-.412-.005c-.203.03-.224-.12-.152-.147Z" fill="#231f20"/>
      <path d="M49.955,90.092s1.594,3.704,1.648,3.85c.055.148.064.305-.092.421-.156.118-.094.21.014.156.11-.054.906-.465,1.11-.574.125-.069.06-.182-.126-.105-.187.08-.289-.116-.374-.327-.067-.161-1.536-3.602-1.536-3.602-.039-.099.029-.214.178-.327.109-.081.106-.231-.043-.153-.15.077-1.103.525-1.194.577-.091.053-.052.129.121.081.173-.048.268-.035.295.001Z" fill="#231f20"/>
      <path d="M54.533,90.144c-.238.268-.729.711-.98.931l-1.103-2.122c.241-.12.465-.239.598-.316.45-.26.709-.18,1.147-.033.438.147.663,1.169.337,1.54ZM57.793,91.28c-.348.089-.63-.102-1.226-.574-.595-.472-1.26-.877-1.562-.73.09-.191.348-.832.011-1.429-.336-.596-1.248-.686-1.663-.472-.417.214-1.979,1.126-1.979,1.126-.108.204.139.158.481.024l2.152,4.109c-.215.159-.238.319-.238.319l1.181-.585s-.002-.094-.354.014l-.898-1.728c.108-.136.292-.349.532-.568.686-.552,1.551.325,2.181.764.63.439.719.36.978.145.259-.212.753-.505.405-.415Z" fill="#231f20"/>
      <path d="M59.431,90.049l-2.242-3.613c.257-.174.495-.335.655-.442.476-.317.967.172.967.172l-.592-.875-3.015,2.057.556.794s-.239-.558.12-.807c.139-.096.407-.281.708-.488l2.29,3.575c-.423.325-.159.346-.159.346l1.044-.722s.051-.204-.332.003Z" fill="#231f20"/>
      <path d="M58.465,85.098l1.141-.883s-.193.4.113.802c.305.403,1.703,2.251,2.121,2.557.418.305,1.639-.129,1.463-1.786.384.274.048,1.929-.868,2.363-.854.405-1.202-.168-1.479-.497-1.078-1.285-1.476-1.802-1.832-2.234-.306-.37-.659-.322-.659-.322Z" fill="#231f20"/>
      <path d="M60.651,83.186l1.012-.867s-.225.271.225.835c.45.561,1.752,2.297,2.105,2.634.354.338.788.147.82-.048.032-.191.096-.064.016.226-.08.29-.346.88-1.028.434-.466-.306-.53-.418-.675-.579-.144-.161-1.751-2.218-1.96-2.492-.209-.273-.514-.144-.514-.144Z" fill="#231f20"/>
      <path d="M64.603,80.919l-.352-1.413s-.118.08-.118.236,0,.373-.176.392-.706-.057-1.235.979c-.177.348-.117,1.763.725,1.588.843-.177,2.508-.861,3.076.194.569,1.059-.724,1.805-1.705,1.295-.019,0,.372,1.158.471,1.451.078-.08.076-.341.195-.451.235-.217,1.293-.314,1.411-1.685.117-1.371-.784-1.936-1.489-1.98-.941-.057-2.313.864-2.431.217-.105-.582,1.02-1.177,1.627-.823Z" fill="#231f20"/>
      <path d="M18.166,35.131c.317.507.774,1.121,1.771,2.457.096.081.1.22.12.301-.966.179-1.674-.029-2.439-.317-.288.378-.726.584-1.257.719v-1.618c.002-.03-.038-.037-.061,0-.395.234-.873.576-1.531.386.272-.545.344-1.248.213-1.224h-.06c-.595.132-1.013.387-1.635.292-.165-.032-.082-.115-.043-.172.14-.36.28-.718.42-1.078-.615.1-1.153.198-1.747-.061.141-.14.349-.279.489-.418.117-.153.2-.322.299-.481-.04-.038-.08-.08-.12-.118-.516.148-1.072-.126-1.515-.292.147-.183.248-.317.497-.489.225-.094.43-.249.359-.357-.059-.041-.051-.14-.162-.163-.601-.073-1.23-.11-1.635-.478.041-.061.14-.137.179-.198.511-.427.606-.384,1.378-.36,0-.019.104.003.009-.145-.346-.547-.166-1.701-.222-1.464-.144.762-1.315.861-1.284.592.021-1.323-.488-.89-.585-1.209-.071-.233.117-.475.466-.682.808-.485,1.282.453,1.138-.027-.08-.1-.091-.234-.239-.3-.633-.123-1.17-.41-1.319-.719-.118-.293-.081-.727.146-1.078.077-.089.154-.134.274-.179.671-.099,1.304,1.186,1.377.899-.344-1.019-.486-2.165.442-2.545.191-.051.56-.067.816.207.426.52-.056,1.91,0,2.934.063,1.138.689,2.513,1.198,3.355.424.631.919,1.25,1.558,1.859.57.443,1.448,1.009,2.041,1.132.076.182.223.504.296.724.106.112.188.188.368.316Z" fill="#ffd300"/>
      <path d="M18.753,29.226c.171.081.344.163.483.258-.541,1.17-.938,2.408.539,3.476.287.207.646.354.938.399.182.348,1.111.564,1.338.26.32-.059.639-.12.958-.18,1.028-.446,1.486-1.39,1.498-2.516.675-.025.85-.327,1.197-.658.041.059.08.12.12.18.281.507.003,1.32-.24,1.677-.179-.18-.359-.36-.539-.541h-.06c.158.563.521,1.097.299,1.738-.04-.021-.08-.04-.12-.059-.099-.306-.217-.453-.539-.541v.061c.372.625.778,1.794,0,2.396h-.061c-.009-.609-.246-1.049-.598-1.319-.04.04-.08.081-.12.12.167.383.626,1.371.34,1.862-.48-.359-1.032-.896-1.511-1.256,0,.061.146.405.211.478.319.481.621,1.119-.092,2.172-.395-1.177-1.957-2.038-2.255-2.717-.064,1.172,1.443,1.998.252,3.654-.039-.019-.08-.038-.119-.061-.308-1.03-1.174-1.559-1.678-2.395-.355-.59-.522-1.013-.316-1.964-.109-.009-.183.086-.223.107-.12.199-.273.521-.393.719-.175-.108-.163-.23-.207-.359-.172-.732.32-1.012.497-1.655.018-.064.032-.132.042-.202-.02,0-.029-.187-.18.175-.14.274-.164.379-.423.523-.034-.07-.049-.258.004-.34.136-.263.229-.512.246-.928-.027-.061-.088-.011-.104.037-.033.035-.057.105-.09.188-.06.14-.112.204-.171.344-.08.179-.162.204-.184.156-.305-.711.498-1.566.722-2.012.056-.16-.002-.124-.059-.061-.28.3-.545.644-.824.944-.046.048-.13.013-.123-.057,0-.179,0-.4.048-.528.261-.799.44-1.226,1.082-1.8.067-.035-.007-.153-.124-.118-.299.102-.753.354-1.052.456,0-.102.06-.373.12-.513.178-.261.333-.529.572-.721.083-.033.149-.024.204.016.025.016.257-.402.253-.445-.033-.218.14-.301.133-.539-.415-.821.29-1.878-.05-2.954.556.207,1.106.759,1.158.818.017-.509.244-1.248.449-1.558.12.099.26.249.37.469.139.22.28.44.418.66.098-.207.153-.577.25-.784.163-.351.396-.692.559-1.043.16.419.37,1.017.529,1.438.23-.08.065-.171.179-.351.1-.478.261-.698.379-1.017.216.368.391,1.119.499,1.696h.061c.039-.019.08-.04.12-.061.16-.37.309-.6.469-.818.57.588.36,1.59.5,1.618.22-.011.489-.51.669-.67.318.351.137,1.172.329,1.358.07.059.15-.07.191-.112.403-.354.755-.6,1.288-.359-.11,1.038-.211,2.76-.749,2.996-.1.099-.399-.159-.538-.179.595,1.059.178,2.304-1.019,2.334-.18-.099-.36-.199-.539-.3-.1-.038-.16-.019-.12.121.776,1.309-.45,2.699-1.617,2.755-.04-.019-.08-.04-.12-.061.02-.121.04-.239.06-.359,1.008-.056,1.746-1.255,1.318-2.336h-.059c-.178.494-.316.735-1.019.717-.18-.14-.36-.279-.54-.418.056-.839.626-.735,1.079-1.138v-1.379c.737.528,1.749.158,2.131-.4.257-.714.02-.628-.042-.469-.326.784-1.7,1.068-1.968.45v-.3c.019-.04.039-.08.059-.118.34-.131.949-.231,1.319-.182.376.053.6-.006.718.3.139-.322.618-.309.625-.848-.25.507-.949.351-1.549.363-.541.013-1.15.077-1.205-.038-.04-.18-.072-.475-.112-.654-.042.032-.128.16-.128.226-.046.887-.061,1.703-.141,2.561-.422-.191-.896-.348-1.502-.233v-.057c.28-.899.559-1.798.839-2.698-.01-.118-.07-.14-.12-.061-.101.276-.143.47-.359.539h-.061c-.381-.019-.615-.467-.938-.628-.329-.08-.559-.089-.898-.129-.16-.1-.3-.48-.44-.698-.074-.12-.147-.043-.049.448.148.376.519.58.519.58,0,0,.013.545.191.848.307.523.894.542,1.377.899-.116.344-.407.842-.299,1.197.262.555.762.831.659,1.618-.233.112-.345.166-.718.179-.446-.159-.772-.304-.959-.719-.221-.36-.061-.847.12-1.137-.04-.041-.08-.08-.12-.121-.24.041-.48.08-.72.121-.424-.089-.769-.523-.89-1.126-.006-.032-.194-.124-.194-.124,0,0-.153.367.061.673.214.306.514.697.6.737Z" fill="#ffd300"/>
      <path d="M13.682,25.153c.427.021.447.153.702.317.482.598-.536,1.184-.946,3.007-.04.132-.079.254-.099.254-.021-.019-.068-.108-.093-.206-.278-1.102-.033-2.036,0-3.174.002-.169.305-.198.437-.198Z" fill="#ffe280"/>
      <path d="M13.682,25.153c.427.021.447.153.702.317.482.598-.536,1.184-.946,3.007-.04.132-.079.254-.099.254-.021-.019-.068-.108-.093-.206-.278-1.102-.033-2.036,0-3.174.002-.169.305-.198.437-.198Z" fill="#ffe280"/>
      <path d="M38.944,21.936c.653.41.049,1.719-.12,2.157.755-.209,1.295-.674,2.276-.84,1.39-.233,2.666.524,4.074.182,1.323-.324,2.587-1.604,4.133-.839-.019.038-.039.08-.058.118-1.519.271-2.382,1.727-3.715,2.277-1.09.451-2.581.078-3.696.136,0,.021.101.085.101.105,1.598.674,1.432,1.44,2.273,2.073-.061.04-.236.104-.296.144-.721.365-1.877.046-2.516-.241-.739-.457-1.479-.917-2.217-1.377-1.987-1.129-8.086-.931-8.865,1.138-.526,1.284,1.019,1.952,3.023,1.779,1.559-.137,3.234-.494,3.866-.459v-.062c-.04-.059-.08-.12-.12-.18-.12-.059-.24-.118-.36-.179.02-.04.04-.08.06-.121.719-.137,1.046.142,1.677.3.148-.427.278-.823.599-1.078.636.134,1.543.815,1.978.48.776.407,2.714,1.089,3.772-.18-.364-.136-1.065-.717-1.138-1.146.709.147,1.449.796,2.277.847.041-.059.08-.118.12-.178.02-.239-.062-.513-.041-.753.023-.134.136-.188.34-.025.619.389,1.646.883,2.577.718.051-.505-.473-.773-.431-1.344.393.207,2.094,1.073,2.348.866-.02-.3-.198-.69-.218-.989.08.08.318.249.398.328.319.281.639.558.958.839h.12c.212-.528.332-1.116.613-1.55.164-.137.125.153.165.172.297.808.883,1.492,1.558,1.799.419-.491-.024-1.215.997-2.058,0,.04-.158.52-.158.56-.018,1.122.038,1.716.719,2.277.624-.124.592-.646.958-1.02.633-.644,2.062-.23,2.793-1.307-.607,1.872-1.771,1.599-2.247,2.36-.422.67-.036,1.122-.247,2.124-.105.501-.442.765-.658,1.138h.059c.718-.327,1.094-1.001,1.738-1.317.874-.429,2.389.207,3.647-.349-1.085,1.942-2.182,1.253-3.555,1.65-.612.178-.864.542-1.35.794-.71.37-1.677.499-2.577.66-2.013.36-4.914-.301-6.335-.351-.056.057-.045.201.046.29,1.079,1.317,2.324,2.092,4.433,2.396,2.78.4,6.09-2.782,8.027-.18-.04.041-.08.08-.12.121-.139-.041-.28-.08-.419-.121-.04.041-.08.08-.12.121.452.85,1.476.772,1.558,2.095-.019.041-.04.08-.059.121-.241-.08-.479-.159-.72-.239-.02.019-.04.038-.059.059.252.477.759,1.016.779,1.497-.221-.038-.44-.08-.659-.118-.02.218-.04.437-.061.658.1.065.226-.014.326.049.08.056.308.07.466.473-.695.254-.669.598-.851,1.153-.502-.035-.542-.202-.779-.478-.041.019-.08.04-.12.061-.145.734-.332,1.255-.778,1.677-.474-.128-.607-.411-1.231-.134-.116-.07-.088-.226-.088-.287.071-.427.235-.606.397-.923.026-.051.053-.1.083-.155.068-.088.086-.207-.059-.12-.14.12-.28.241-.421.359-.194.622-.332,1.158-1.138,1.199-.504-.274-.536-.8-.958-1.138l.06-.12c.759-.3,1.518-.598,2.277-.899.462-1.484.03-2.368-.989-2.746-2.211-.821-8.263.883-11.052.171-1.146-.293-2.675-1.263-3.115-2.277-.131-.304-.176-.851.01-1.279.058-.132-.132-.113-.19-.099-.08.178-.159.36-.239.539-.58-.12-1.158-.239-1.738-.36-2.722-.089-4.59.931-5.87,1.499-2.572,1.138-4.206,3.114-9.357,2.406-.194-.091-.248-.03-.288-.011.056,1.001.677,1.14.714,2.226-.372.638-.925.899-1.493,1.189-.145.08-.214-.188-.289-.421-.105-.067-.091.163-.13.182.084.832-.446,1.161-1.019,1.499-.138.092-.163.072-.218-.312-.199-.322-.3-.387-.5-.708-.088-.137-.168-.14-.12.061-.055.638-.377.914-.839,1.138-.192.134-.286.144-.24-.061-.025-.526-.282-.899-.718-1.017-.077.765-.57.996-1.138,1.258-.199.104-.216.053-.179-.18.095-.394.039-1.001-.351-1.122-.143.706-.921,1.228-1.746,1.244.109-.507.346-.765.299-1.32-.039-.038-.08-.206-.119-.246-.281.665-.738.973-1.438,1.266-.159.038-.387.131-.446.072.108-.043.202-.579.414-.796.221-.277.412-.376.631-.655-.04-.019-.08-.04-.12-.059-.459-.021-.919-.041-1.378-.061.069.571.007.917-.359,1.199-.267-.11-.477-.513-1.286-.45-.238-.236-.021-.217-.05-.596.16-.281.277-.293.438-.572-.021-.021-.04-.04-.061-.059-.46.292-2.283,1.913-2.995.718-.166-.185-.161-.271-.12-.539.454-.435,1.22-.379,1.736-.778-.019-.041-.039-.08-.059-.121-.67.022-1.466.442-1.797.241-.296-.156-.374-.44-.6-.658-.01-.346.024-.584.12-.778.06-.022.12-.041.179-.061,2.325.749,5.161,1.811,8.266,1.017.699-.279,1.398-.558,2.097-.839.021.021.04.04.061.061.04.258.08.52.12.778.059-.019.119-.04.179-.061.835-1.09,1.111-1.234.76-2.934.06.061.265.233.324.293.518.536.887.751.501,1.755,1.087-.204,1.469-1.338,1.304-2.361.08.061.279.153.345.312.1.178.147.411.247.593.059-.041.225-.319.265-.399.19-.762.555-.402.926-1.452.079-.226.011-.646.064-.858.037-.145.143-.191.175-.327.076-.32.121-.73.096-1,.115-.148.218-.247.314-.497.123-.319.223-.831.23-1.252,1.572.156,3.526.427,5.291.399,1.211-.035,2.436-.201,3.654-.3,8.156-1.496,10.286-1.237,15.246-.239,2.01.405,5.712.341,5.421-1.738-.278-1.987-4.735-1.939-6.918-1.438-3.945.906-8.007,1.445-12.131,2.218-1.87.349-4.566.789-6.35.059-1.818-.745-3.021-2.707-1.258-4.372,2.12-2.002,8.249-1.164,9.764-3.476Z" fill="#835221"/>
      <path d="M41.759,33.868c.184.002.399.057.554.175-.563,2.011,1.464,2.896,2.262,3.827.069.131.139.925-.443,1.014.041.896-.432,1.537-.606,1.684-.563-.37-.875-.756-1.287-1.079-.085-.051-.08.08-.12.12.147.622-.526,1.473-1.093,1.588-.148-.542-.197-1.087-.464-1.483-.249-.145-.139.054-.179.073-.068.928-.474,1.43-1.049,1.843-.04-.019-.274.096-.209-.045-.17-.751-.651-1.189-1.199-1.558-.04.021-.079.04-.119.059.032,1.062-.419,1.505-1.079,1.859-.06-.041-.12-.08-.179-.121-.588-.552-.28-.647-.42-1.138-.259-.019-.433.062-.779-.059-.139.022-.04.08-.059.12.175.389.183.746.059,1.199-.08.057-.159.118-.238.178-.371-.36-.845-.28-1.233-.214-.407-.614.01-1.072-.145-1.283-.495.397-1.261,1.532-2.32,1.095-.139-.101-.21.038-.436-.316.015-.497.152-.513.36-.78.439-.199.879-.4,1.317-.6v-.059c-.231.006-.903.08-1.506.456-.707-.032-1.729-.598-.949-1.236,1.181-.665,6.281.929,9.003-1.166.136-.107.102-.233.102-.271-1.556-1.011-2.021-2.385-.599-3.895.059,0,1.383-.274,3.054.011Z" fill="#835221"/>
      <path d="M18.753,29.226c.171.081.344.163.483.258-.541,1.17-.938,2.408.539,3.476.287.207.646.354.938.399.182.348,1.111.564,1.338.26.32-.059.639-.12.958-.18,1.028-.446,1.486-1.39,1.498-2.516.675-.025.85-.327,1.197-.658.041.059.08.12.12.18.281.507.003,1.32-.24,1.677-.179-.18-.359-.36-.539-.541h-.06c.158.563.521,1.097.299,1.738-.04-.021-.08-.04-.12-.059-.099-.306-.217-.453-.539-.541v.061c.372.625.778,1.794,0,2.396h-.061c-.009-.609-.246-1.049-.598-1.319-.04.04-.08.081-.12.12.167.383.626,1.371.34,1.862-.48-.359-1.032-.896-1.511-1.256,0,.061.146.405.211.478.319.481.621,1.119-.092,2.172-.395-1.177-1.957-2.038-2.255-2.717-.064,1.172,1.443,1.998.252,3.654-.039-.019-.08-.038-.119-.061-.308-1.03-1.174-1.559-1.678-2.395-.355-.59-.522-1.013-.316-1.964-.109-.009-.183.086-.223.107-.12.199-.273.521-.393.719-.175-.108-.163-.23-.207-.359-.172-.732.32-1.012.497-1.655.018-.064.032-.132.042-.202-.02,0-.029-.187-.18.175-.14.274-.164.379-.423.523-.034-.07-.049-.258.004-.34.136-.263.229-.512.246-.928-.027-.061-.088-.011-.104.037-.033.035-.057.105-.09.188-.06.14-.112.204-.171.344-.08.179-.162.204-.184.156-.305-.711.498-1.566.722-2.012.056-.16-.002-.124-.059-.061-.28.3-.545.644-.824.944-.046.048-.13.013-.123-.057,0-.179,0-.4.048-.528.261-.799.44-1.226,1.082-1.8.067-.035-.007-.153-.124-.118-.299.102-.753.354-1.052.456,0-.102.06-.373.12-.513.178-.261.333-.529.572-.721.083-.033.149-.024.204.016.025.016.257-.402.253-.445-.033-.218.14-.301.133-.539-.415-.821.29-1.878-.05-2.954.556.207,1.106.759,1.158.818.017-.509.244-1.248.449-1.558.12.099.26.249.37.469.139.22.28.44.418.66.098-.207.153-.577.25-.784.163-.351.396-.692.559-1.043.16.419.37,1.017.529,1.438.23-.08.065-.171.179-.351.1-.478.261-.698.379-1.017.216.368.391,1.119.499,1.696h.061c.039-.019.08-.04.12-.061.16-.37.309-.6.469-.818.57.588.36,1.59.5,1.618.22-.011.489-.51.669-.67.318.351.137,1.172.329,1.358.07.059.15-.07.191-.112.403-.354.755-.6,1.288-.359-.11,1.038-.211,2.76-.749,2.996-.1.099-.399-.159-.538-.179.595,1.059.178,2.304-1.019,2.334-.18-.099-.36-.199-.539-.3-.1-.038-.16-.019-.12.121.776,1.309-.45,2.699-1.617,2.755-.04-.019-.08-.04-.12-.061.02-.121.04-.239.06-.359,1.008-.056,1.746-1.255,1.318-2.336h-.059c-.178.494-.316.735-1.019.717-.225-.035-.418-.212-.54-.418.056-.839.626-.735,1.079-1.138v-1.379c.737.528,1.749.158,2.131-.4.257-.714.02-.628-.042-.469-.326.784-1.7,1.068-1.968.45v-.3c.019-.04.039-.08.059-.118.34-.131.949-.231,1.319-.182.376.053.6-.006.718.3.139-.322.618-.309.625-.848-.25.507-.949.351-1.549.363-.541.013-1.15.077-1.205-.038-.04-.18-.072-.475-.112-.654-.042.032-.128.16-.128.226-.046.887-.061,1.703-.141,2.561-.422-.191-.896-.348-1.502-.233v-.057c.28-.899.559-1.798.839-2.698-.01-.118-.07-.14-.12-.061-.101.276-.143.47-.359.539h-.061c-.381-.019-.615-.467-.938-.628-.329-.08-.559-.089-.898-.129-.16-.1-.3-.48-.44-.698-.074-.12-.147-.043-.049.448.148.376.519.58.519.58,0,0,.013.545.191.848.307.523.894.542,1.377.899-.116.344-.407.842-.299,1.197.262.555.762.831.659,1.618-.233.112-.345.166-.718.179-.446-.159-.772-.304-.959-.719-.221-.36-.061-.847.12-1.137-.04-.041-.08-.08-.12-.121-.24.041-.48.08-.72.121-.424-.089-.769-.523-.89-1.126-.006-.032-.194-.124-.194-.124,0,0-.153.367.061.673.214.306.514.697.6.737Z" fill="#ffd300"/>
      <path d="M18.166,35.131c.317.507.774,1.121,1.771,2.457.096.081.1.22.12.301-.966.179-1.674-.029-2.439-.317-.288.378-.726.584-1.257.719v-1.618c.002-.03-.038-.037-.061,0-.395.234-.873.576-1.531.386.272-.545.344-1.248.213-1.224h-.06c-.595.132-1.013.387-1.635.292-.165-.032-.082-.115-.043-.172.14-.36.28-.718.42-1.078-.615.1-1.153.198-1.747-.061.141-.14.349-.279.489-.418.117-.153.2-.322.299-.481-.04-.038-.08-.08-.12-.118-.516.148-1.072-.126-1.515-.292.147-.183.248-.317.497-.489.225-.094.43-.249.359-.357-.059-.041-.051-.14-.162-.163-.601-.073-1.23-.11-1.635-.478.041-.061.14-.137.179-.198.511-.427.606-.384,1.378-.36,0-.019.104.003.009-.145-.346-.547-.166-1.701-.222-1.464-.144.762-1.315.861-1.284.592.021-1.323-.488-.89-.585-1.209-.071-.233.117-.475.466-.682.808-.485,1.282.453,1.138-.027-.08-.1-.091-.234-.239-.3-.633-.123-1.17-.41-1.319-.719-.118-.293-.081-.727.146-1.078.077-.089.154-.134.274-.179.671-.099,1.304,1.186,1.377.899-.344-1.019-.486-2.165.442-2.545.191-.051.56-.067.816.207.426.52-.056,1.91,0,2.934.063,1.138.689,2.513,1.198,3.355.424.631.919,1.25,1.558,1.859.57.443,1.448,1.009,2.041,1.132.076.182.223.504.296.724.106.112.188.188.368.316Z" fill="#ffd300"/>
      <path d="M38.944,21.936c.653.41.049,1.719-.12,2.157.755-.209,1.295-.674,2.276-.84,1.39-.233,2.666.524,4.074.182,1.323-.324,2.587-1.604,4.133-.839-.019.038-.039.08-.058.118-1.519.271-2.382,1.727-3.715,2.277-1.09.451-2.581.078-3.696.136,0,.021.101.085.101.105,1.598.674,1.432,1.44,2.273,2.073-.061.04-.236.104-.296.144-.721.365-1.877.046-2.516-.241-.739-.457-1.479-.917-2.217-1.377-1.987-1.129-8.086-.931-8.865,1.138-.526,1.284,1.019,1.952,3.023,1.779,1.559-.137,3.234-.494,3.866-.459v-.062c-.04-.059-.08-.12-.12-.18-.12-.059-.24-.118-.36-.179.02-.04.04-.08.06-.121.719-.137,1.046.142,1.677.3.148-.427.278-.823.599-1.078.636.134,1.543.815,1.978.48.776.407,2.714,1.089,3.772-.18-.364-.136-1.065-.717-1.138-1.146.709.147,1.449.796,2.277.847.041-.059.08-.118.12-.178.02-.239-.062-.513-.041-.753.023-.134.136-.188.34-.025.619.389,1.646.883,2.577.718.051-.505-.473-.773-.431-1.344.393.207,2.094,1.073,2.348.866-.02-.3-.198-.69-.218-.989.08.08.318.249.398.328.319.281.639.558.958.839h.12c.212-.528.332-1.116.613-1.55.164-.137.125.153.165.172.297.808.883,1.492,1.558,1.799.419-.491-.024-1.215.997-2.058,0,.04-.158.52-.158.56-.018,1.122.038,1.716.719,2.277.624-.124.592-.646.958-1.02.633-.644,2.062-.23,2.793-1.307-.607,1.872-1.771,1.599-2.247,2.36-.422.67-.036,1.122-.247,2.124-.105.501-.442.765-.658,1.138h.059c.718-.327,1.094-1.001,1.738-1.317.874-.429,2.389.207,3.647-.349-1.085,1.942-2.182,1.253-3.555,1.65-.612.178-.864.542-1.35.794-.71.37-1.677.499-2.577.66-2.013.36-4.914-.301-6.335-.351-.056.057-.045.201.046.29,1.079,1.317,2.324,2.092,4.433,2.396,2.78.4,6.09-2.782,8.027-.18-.04.041-.08.08-.12.121-.139-.041-.28-.08-.419-.121-.04.041-.08.08-.12.121.452.85,1.476.772,1.558,2.095-.019.041-.04.08-.059.121-.241-.08-.479-.159-.72-.239-.02.019-.04.038-.059.059.252.477.759,1.016.779,1.497-.221-.038-.44-.08-.659-.118-.02.218-.04.437-.061.658.1.065.226-.014.326.049.08.056.308.07.466.473-.695.254-.669.598-.851,1.153-.502-.035-.542-.202-.779-.478-.041.019-.08.04-.12.061-.145.734-.332,1.255-.778,1.677-.474-.128-.607-.411-1.231-.134-.116-.07-.088-.226-.088-.287.071-.427.235-.606.397-.923.026-.051.053-.1.083-.155.068-.088.086-.207-.059-.12-.14.12-.28.241-.421.359-.194.622-.332,1.158-1.138,1.199-.504-.274-.536-.8-.958-1.138l.06-.12c.759-.3,1.518-.598,2.277-.899.462-1.484.03-2.368-.989-2.746-2.211-.821-8.263.883-11.052.171-1.146-.293-2.675-1.263-3.115-2.277-.131-.304-.176-.851.01-1.279.058-.132-.132-.113-.19-.099-.08.178-.159.36-.239.539-.58-.12-1.158-.239-1.738-.36-2.722-.089-4.59.931-5.87,1.499-2.572,1.138-4.206,3.114-9.357,2.406-.194-.091-.248-.03-.288-.011.056,1.001.677,1.14.714,2.226-.372.638-.925.899-1.493,1.189-.145.08-.214-.188-.289-.421-.105-.067-.091.163-.13.182.084.832-.446,1.161-1.019,1.499-.138.092-.163.072-.218-.312-.199-.322-.3-.387-.5-.708-.088-.137-.168-.14-.12.061-.055.638-.377.914-.839,1.138-.192.134-.286.144-.24-.061-.025-.526-.282-.899-.718-1.017-.077.765-.57.996-1.138,1.258-.199.104-.216.053-.179-.18.095-.394.039-1.001-.351-1.122-.143.706-.921,1.228-1.746,1.244.109-.507.346-.765.299-1.32-.039-.038-.08-.206-.119-.246-.281.665-.738.973-1.438,1.266-.159.038-.387.131-.446.072.108-.043.202-.579.414-.796.221-.277.412-.376.631-.655-.04-.019-.08-.04-.12-.059-.459-.021-.919-.041-1.378-.061.069.571.007.917-.359,1.199-.267-.11-.477-.513-1.286-.45-.238-.236-.021-.217-.05-.596.16-.281.277-.293.438-.572-.021-.021-.04-.04-.061-.059-.46.292-2.283,1.913-2.995.718-.166-.185-.161-.271-.12-.539.454-.435,1.22-.379,1.736-.778-.019-.041-.039-.08-.059-.121-.67.022-1.466.442-1.797.241-.296-.156-.374-.44-.6-.658-.01-.346.024-.584.12-.778.06-.022.12-.041.179-.061,2.325.749,5.161,1.811,8.266,1.017.699-.279,1.398-.558,2.097-.839.021.021.04.04.061.061.04.258.08.52.12.778.059-.019.119-.04.179-.061.835-1.09,1.111-1.234.76-2.934.06.061.265.233.324.293.518.536.887.751.501,1.755,1.087-.204,1.469-1.338,1.304-2.361.08.061.279.153.345.312.1.178.147.411.247.593.059-.041.225-.319.265-.399.19-.762.555-.402.926-1.452.079-.226.011-.646.064-.858.037-.145.143-.191.175-.327.076-.32.121-.73.096-1,.115-.148.218-.247.314-.497.123-.319.223-.831.23-1.252,1.572.156,3.526.427,5.291.399,1.211-.035,2.436-.201,3.654-.3,8.156-1.496,10.286-1.237,15.246-.239,2.01.405,5.712.341,5.421-1.738-.278-1.987-4.735-1.939-6.918-1.438-3.945.906-8.007,1.445-12.131,2.218-1.87.349-4.566.789-6.35.059-1.818-.745-3.021-2.707-1.258-4.372,2.12-2.002,8.249-1.164,9.764-3.476Z" fill="#ffd300"/>
      <path d="M41.759,33.868c.184.002.399.057.554.175-.563,2.011,1.464,2.896,2.262,3.827.069.131.139.925-.443,1.014.041.896-.432,1.537-.606,1.684-.563-.37-.875-.756-1.287-1.079-.085-.051-.08.08-.12.12.147.622-.526,1.473-1.093,1.588-.148-.542-.197-1.087-.464-1.483-.249-.145-.139.054-.179.073-.068.928-.474,1.43-1.049,1.843-.04-.019-.274.096-.209-.045-.17-.751-.651-1.189-1.199-1.558-.04.021-.079.04-.119.059.032,1.062-.419,1.505-1.079,1.859-.06-.041-.12-.08-.179-.121-.588-.552-.28-.647-.42-1.138-.259-.019-.433.062-.779-.059-.139.022-.04.08-.059.12.175.389.183.746.059,1.199-.08.057-.159.118-.238.178-.371-.36-.845-.28-1.233-.214-.407-.614.01-1.072-.145-1.283-.495.397-1.261,1.532-2.32,1.095-.139-.101-.21.038-.436-.316.015-.497.152-.513.36-.78.439-.199.879-.4,1.317-.6v-.059c-.231.006-.903.08-1.506.456-.707-.032-1.729-.598-.949-1.236,1.181-.665,6.281.929,9.003-1.166.136-.107.102-.233.102-.271-1.556-1.011-2.021-2.385-.599-3.895.059,0,1.383-.274,3.054.011Z" fill="#ffd300"/>
      <path d="M23.489,27.338s-.139.44.199.579c.34.14.58.011.689-.26.111-.268.071-.588-.288-.558-.36.029-.479.051-.6.239Z" fill="#231f20"/>
      <path d="M21.222,26.829s-.13.619-.639.378c-.509-.239-.269-.727-.199-.917.069-.19.838.389.838.539Z" fill="#231f20"/>
      <path d="M57.788,34.468s.525-.169.704-.048c.18.121.403.328.403.504s.135-.121.16-.276c.025-.155-.31-.636-.718-.558-.409.078-.67.247-.549.378Z" fill="#966a3d"/>
      <path d="M17.593,34.857s-.437-.311-.763-.624c-.328-.311-.281-.186-.515-.279-.233-.094.093.265.108.592.016.327-.249.92-.639,1.107-.218.078-.78-.748-1.013-.608-.233.14,1.185,1.574,2.51,2.073,1.325.499.795-1.9.312-2.261Z" fill="#ce8a2d"/>
      <path d="M17.515,34.716s.484.11.795.453c.312.343.92,2.025.92,2.025,0,0-.265.953-2.478-.325-.312-.281.56-.14.732-.437.17-.296.498-.826.047-1.48-.172-.188-.016-.236-.016-.236Z" fill="#926227"/>
      <path d="M18.263,35.153s.234.89.467,1.371c.234.485-.467.545-.779.545s.03.344.358.485c.328.14,1.232.373,1.528.016.296-.359-1.574-2.417-1.574-2.417Z" fill="#754c1f"/>
      <path d="M13.321,25.517s.523.035.463.274c-.06.239-.309,1.655-.197,1.971.112.319.951-1.32,1.003-1.74.052-.419-.24-1.019-.815-.985-.575.033-.745.437-.455.48Z" fill="#ffe280"/>
      <path d="M12.885,26.623s-.318.488-.403-.07c-.086-.558.12-1.55-.145-1.524-.267.026-.489-.061-.498.529-.008.593.052,1.535-.317,1.476-.368-.061-.479-.832-.403-1.304.077-.472.137-1.285,1.072-1.269.934.019.84,1.339.695,2.162Z" fill="#ffe280"/>
      <path d="M11.255,27.204s-.163.842-.531.19c-.369-.652-.548-.823-.575-.435-.026.384.035.666.035.788,0,.12-.61.163-.66-.198-.052-.36-.018-.95.197-1.216.214-.266,1.165-.301,1.534.872Z" fill="#ffe280"/>
      <path d="M11.281,29.049s-.515-.601-1.055-.215c-.54.386.085.447.223.832.136.386.386.351.377.086-.009-.266-.515-.462-.36-.625.154-.164.857.453.815-.078Z" fill="#ffe280"/>
      <path d="M11.666,31.646s-.643-.233-.96-.061c-.317.172-.377.37-.128.411.249.043.411-.171.745-.112.335.061.617-.033.343-.239Z" fill="#ffe280"/>
      <path d="M12.215,32.811s-.556.198-.848.429c-.291.233-.069.343.386.478.454.139.077-.196.386-.488.309-.29.215-.496.077-.419Z" fill="#ffe280"/>
      <path d="M13.098,34.268c-.203-.072-.866.325-1.029.515-.162.188.215.092.618-.07.402-.163.729-.333.411-.445Z" fill="#ffe280"/>
      <path d="M14.153,35.399s-.309-.102-.514.233c-.207.335-.301.437-.164.513.138.077.369-.025.446-.249.054-.155.429-.367.232-.497Z" fill="#ffe280"/>
      <path d="M15.456,36.188s-.292.027-.497.413c-.206.386-.051.478.18.386.231-.096.608-.858.317-.799Z" fill="#ffe280"/>
      <path d="M16.673,37.311s.06.12-.215.317c-.274.198.116.144.403-.128.146-.137-.069-.378-.188-.19Z" fill="#ffe280"/>
      <path d="M17.921,28.455s-.557.322-.725.719c-.168.397.471-.112.657-.242.187-.131.317-.601.068-.477Z" fill="#ffe280"/>
      <path d="M17.841,29.85s-.426.564-.47,1.004c-.044.44.104.198.372-.236.266-.434.261-.397.34-.564.08-.166-.061-.44-.242-.204Z" fill="#ffe280"/>
      <path d="M17.822,32.019s.105-.539.316-.73c.211-.193.254.16.118.507s-.216.725-.366.848c-.148.124-.093-.456-.068-.625Z" fill="#ffe280"/>
      <path d="M18.399,32.551s.223-.204.267-.013c.042.193-.235.646-.311.961-.074.316-.334.663-.427.193-.092-.472.08-.447.192-.657.112-.212.136-.367.279-.485Z" fill="#ffe280"/>
      <path d="M18.597,33.989s.218-.378.454-.21c.235.168.037.558.433,1.32.396.762,1.072,1.735,1.283,1.988.21.255.273.236.174.633-.099.397-.273.434-.495.086-.224-.348-1.321-1.661-1.562-1.995-.241-.336-.601-1.456-.285-1.822Z" fill="#ffe280"/>
      <path d="M21.183,35.007s.959.788,1.248,1.277c.291.489.411.719.56.518.15-.199-.22-.708-.719-1.188-.499-.48-1.237-1.057-1.088-.607Z" fill="#ffe280"/>
      <path d="M23.07,34.466s.618.461.768.738c.15.28.27-.04.081-.278-.19-.241-.979-.839-.848-.461Z" fill="#ffe280"/>
      <path d="M25.017,33.398s-.24-.319-.509-.368c-.269-.051-.05.16.09.38.139.218.179.497.159.768-.02.269.23.478.369.048.14-.427-.109-.828-.109-.828Z" fill="#ffe280"/>
      <path d="M25.106,31.93s-.186-.3-.45.07c-.049.07.29.48.35.839.061.36.36.15.379-.22.021-.368-.279-.689-.279-.689Z" fill="#ffe280"/>
      <path d="M25.385,30.711s.08.271-.009.571c-.091.298.299.549.339.118.04-.427-.01-.718-.33-.689Z" fill="#ffe280"/>
      <path d="M25.056,28.317s.329.698.091,1.138c-.24.438.167.277.289.019.39-.829-.529-1.358-.38-1.158Z" fill="#ffe280"/>
      <path d="M20.354,29.13s-.412.169-.382.673c.03.504.398.902.871.886.474-.016.383-.258.107-.306-.275-.045-.611-.32-.565-.733.045-.413.153-.596-.031-.52Z" fill="#ffe280"/>
      <path d="M19.406,28.747s-.963,0-1.008-.764c-.045-.764.214-.719.336-.824.123-.108.321.091.137.319-.183.23.046.903.368.949.321.046.55.246.167.32Z" fill="#ffe280"/>
      <path d="M18.367,26.623s.443.58.489.183c.045-.397-.321-.611-.168-1.146.152-.536.046-.871.259-.641.215.228.489.091.367-.215-.122-.306-.886-1.04-.993-.626-.107.411-.26,2.124.046,2.446Z" fill="#ffe280"/>
      <path d="M19.65,24.653s.337.504.459.089c.121-.411.26-.442.397-.289.137.152-.23-1.054-.519-.979-.292.077-.337,1.178-.337,1.178Z" fill="#ffe280"/>
      <path d="M21.088,24.407s.274-.657.367-.489c.092.167.229.123.152-.29-.076-.413-.076-.81-.275-.55-.199.258-.505,1.36-.244,1.33Z" fill="#ffe280"/>
      <path d="M22.356,24.178s.245-.185.336-.061c.092.121.246.214.246-.153s-.23-.979-.474-.489c-.244.489-.199.505-.107.703Z" fill="#ffe280"/>
      <path d="M23.381,24.437s.336.046.458-.046c.123-.091.046.185.123.29.076.108.305-.474.106-.963-.199-.488-.703.399-.687.719Z" fill="#ffe280"/>
      <path d="M24.481,25.247s.123.153.276.276c.152.121.382.534.427.045.045-.488-.397-.963-.489-.749-.092.215-.214.429-.214.429Z" fill="#ffe280"/>
      <path d="M25.52,26.057s.52-.489.825-.383c.306.108.733-.014.535-.26-.199-.244-1.008-.228-1.161-.029-.153.198-.305.564-.199.671Z" fill="#ffe280"/>
      <path d="M21.851,26.623s.336-.58.474-.153c.137.427-.199.794-.352,1.36-.153.566-.414.505-.138.582.275.077.458.26.045.228-.412-.03-.84.322-.641-.121.199-.445.289-1.561.611-1.896Z" fill="#ffe280"/>
      <path d="M43.503,35.415s-1.1-2.025-.335-2.519c.275-.175.098.906.826,1.91.727,1.001,2.183,1.846,4.051,1.827,1.868-.019,2.144.158.846.373-1.299.217-3.993.788-5.388-1.591Z" fill="#ffe280"/>
      <path d="M48.609,32.779s-.799-.78-1.418-.879c-.619-.099-.478.258.021.52.499.258,2.176,2.156,4.133,2.554,1.956.4,5.191-.399,6.33-.738,1.138-.34,1.197,0,1.397.359.199.36.379-.019.14-.738-.24-.719-1.039-.619-3.195.1-2.156.717-3.334.717-4.852.14-1.519-.58-1.479-.88-2.557-1.319Z" fill="#ffe280"/>
      <path d="M59.791,33.817s.459-.22.799.44c.12.199.04-.021-.459,0-.499.019-.579-.36-.34-.44Z" fill="#ffe280"/>
      <path d="M60.19,35.635s.658.359.879.6c.219.239.399-.1-.08-.52-.48-.421-.899-.36-.799-.08Z" fill="#ffe280"/>
      <path d="M60.63,37.212s.519.199.759.579c.24.379.539.44.28-.038-.132-.246-.495-.63-.772-.804-.268-.172-.494.179-.267.263Z" fill="#ffe280"/>
      <path d="M60.829,38.369s-.479.161-.139.461c.339.3.678.218.499.539-.179.319.418-.061.519-.121.099-.059-.16-.399-.38-.6-.218-.198-.279-.399-.499-.279Z" fill="#ffe280"/>
      <path d="M58.154,38.431s.278-.74.398-.062c.12.679.021,1.138-.718,1.679-.738.539-1.317.658-1.757.598-.439-.059-.76-.18,0-.34.758-.16,1.278-.279,1.598-.679.32-.399.56-.579.48-1.196Z" fill="#ffe280"/>
      <path d="M56.496,39.688s-.639.121-.998.019c-.36-.099-.619.022-.639.3-.02.28-.239.241-.299-.099-.061-.34.04-.839.339-.879.3-.04,1.078.199,1.598.659Z" fill="#ffe280"/>
      <path d="M58.094,40.297s.175-.261.407-.379c.234-.115.301.03.146.351-.156.32-.525.571-.399.855.127.28.214.222-.106.387-.321.164-.621.126-.438-.292.185-.418.389-.922.389-.922Z" fill="#ffe280"/>
      <path d="M27.003,31.63s1.923.733,5.69.258c3.768-.477,6.464-1.091,10.628-1.111,4.165-.021,8.21,1.111,9.816,1.012,1.606-.102.303-.657-1.613-.867-1.917-.21-8.147-1.499-13.628-.389-5.481,1.11-8.895.989-10.244.839-1.347-.15-.649.258-.649.258Z" fill="#ffe280"/>
      <path d="M30.269,27.684s-.122,1.252,2.015,1.572c2.137.32,3.636-.123,4.053-.246.417-.123.344-.418-.835-.418s-2.482.442-3.562-.026c-1.081-.465-1.671-.883-1.671-.883Z" fill="#ffe280"/>
      <path d="M28.872,27.124s.396-1.368,2.303-2.015c1.908-.649,5.974-1.008,7.09-1.548,1.115-.54.828.107.828.107,0,0,.179.434.971.325.791-.108,1.764-.395,3.959-.073,2.195.325,2.195-.287,3.312-.539,1.115-.252,2.626-.828,1.547-.864-1.079-.035-2.772.899-4.824.686-2.05-.217-3.742-.108-4.714.395s.217-.252.072-1.081c-.143-.828-.323.539-3.275,1.008-2.95.469-7.377,1.081-7.27,3.6Z" fill="#ffe280"/>
      <path d="M37.051,27.778s.324.52.152.714c-.174.195.238.15.238-.477s-.282-.368-.39-.238Z" fill="#ffe280"/>
      <path d="M38.867,27.95s.347-.303.736-.692-.217-.627-.412-.344c-.194.281.131.561-.215.778-.347.217-.108.258-.108.258Z" fill="#ffe280"/>
      <path d="M44.078,26.155l.174.692s-.844-.136-.844-.928c0-.368.67.236.67.236Z" fill="#ffe280"/>
      <path d="M46.5,27s.173-.67.259-.845c.087-.172-.713-.539-.735-.324-.022.217.281,1.21.476,1.169Z" fill="#ffe280"/>
      <path d="M48.944,26.611s.347-.497.432-.823c.087-.324-1.146-.692-.908-.281.238.411.216,1.017.476,1.103Z" fill="#ffe280"/>
      <path d="M50.63,25.982s.649.909.583.368c-.064-.54.13-.929-.258-1.146-.39-.217-.324.778-.324.778Z" fill="#ffe280"/>
      <path d="M52.965,24.838s-.562.432-.476,1.103c.086.67.454.69.497,0,.043-.694-.022-1.103-.022-1.103Z" fill="#ffe280"/>
      <path d="M54.932,25.247s-.388.93-.41,1.405c-.022.477.454.737.584-.041.129-.78.303-1.255.411-1.666.108-.41-.584.303-.584.303Z" fill="#ffe280"/>
      <path d="M56.446,27.409s-.173-.713.995-1.21c.604-.258,1.622-.368,1.622-.368,0,0,.368.304-1.383.843-.671.239-1.06,1.146-1.103,1.665-.043.52-.324-.389-.13-.929Z" fill="#ffe280"/>
      <path d="M57.658,30.849s.388-.563,1.967-.563,1.795-.41,2.12-.778c.324-.368-.064-.088-.67.152-.606.238-1.297-.045-2.4.281-1.103.325-1.016.909-1.016.909Z" fill="#ffe280"/>
      <path d="M38.538,33.961s-.883.88-.729,1.891c.089.579.639,1.381.925,1.486.286.105.513-.077.317-.408-.196-.33-1.025-.376-.89-1.808.053-.555.019-.666.377-1.161Z" fill="#ffe280"/>
      <path d="M42.443,35.574s1.869,1.719,2.11,1.974c.242.258.347.663.242.934-.106.273-1.508.258-1.13-.316.376-.574-1.267-1.9-1.221-2.593Z" fill="#ffe280"/>
      <path d="M30.844,39.037s-.511.325.085.529c.597.204,3.837.494,5.628.033,1.791-.461,2.132-.649,2.643-1.467-.461.155-2.098,1.057-6.652.853-.781-.035-1.398-.051-1.705.051Z" fill="#ffe280"/>
      <path d="M32.157,40.265s.733-.169.716.102c-.017.274-.75.461-1.261.906-.512.443-.802.186-.733-.172.068-.357.579-.767,1.279-.835Z" fill="#ffe280"/>
      <path d="M34.039,40.822s-.028.152-.05.48c-.022.332.058.612.058.612,0,0-.352.164-.403-.561-.024-.344.273-.531.395-.531Z" fill="#ffe280"/>
      <path d="M38.285,40.342s.18-.179.525.136c.344.314.465,1.137.269,1.438-.165-.974-.794-1.574-.794-1.574Z" fill="#ffe280"/>
      <path d="M40.562,39.863s.045-.375.225-.016c.179.36.449.96.329,1.438-.105.166-.255.089-.389-.628-.136-.721-.165-.794-.165-.794Z" fill="#ffe280"/>
      <path d="M36.648,40.852s.393.043.322.66c-.07.619-.224.619-.45.338-.225-.281-.125-1.194.128-.998Z" fill="#ffe280"/>
      <path d="M42.335,39.425s.904.931,1.089,1.159c.184.228.501-.088.298-.44-.202-.351-.746-.711-1.387-.719Z" fill="#ffe280"/>
      <path d="M9.963,39.125s0-.534.533-.394c.533.14,3.834,1.11,5.505,1.11s3.512-.547,3.427-.899c-.085-.351-.604-.029-1.433.043-.829.07-3.694.266-6.517-.604-.739-.226-1.727-.462-1.672.112.057.577.085.773.155.633Z" fill="#ffe280"/>
      <path d="M11.717,39.532s.745-.21.843.253c.097.464-1.349.365-1.587.716-.238.351.183.561.07.647-.112.083-.843-.914-.379-1.194.463-.282.534-.309,1.053-.422Z" fill="#ffe280"/>
      <path d="M16.17,40.769s-.126.716-.28.969c-.155.252-.69.265-.69.265,0,0,.366-1.39.969-1.234Z" fill="#ffe280"/>
      <path d="M17.167,41.035s-.027-.52.141-.266c.168.252.646,1.32-.561,1.46.154-.689.42-1.194.42-1.194Z" fill="#ffe280"/>
      <path d="M24.862,37.765s.45.293.636.515c.185.218.741.706.411,1.134-.329.427-.914.733-1.37.635-.457-.097.18-.263.427-.526.514-.542-.422-1.961-.104-1.757Z" fill="#ffe280"/>
      <path d="M11.408,37.531s-.03-.662.28-.263c.311.399.495.698.728.855.234.156-.222-.341-.339-.727-.116-.389-.816-.952-.951-.641-.136.309,0,1.164.281.776Z" fill="#ffe280"/>
      <path d="M18.908,41.257s.07-.442.277-.14c.207.303.173.564.104.832-.069.268-.347.379-.347.379l-.034-1.071Z" fill="#ffe280"/>
      <path d="M20.76,41.247s-.069-.528.13-.293c.199.233.293.587.181,1.192-.225-.674-.311-.899-.311-.899Z" fill="#ffe280"/>
      <path d="M22.602,40.979s.458.035.606.536c.147.502-.216.207-.424-.139-.207-.346-.371-.475-.182-.397Z" fill="#ffe280"/>
      <path d="M19.415,29.724c.126-.394.178.206.153.416-.043.364-.214.947-.092,1.44.22.895,1.013.93,1.125,1.242.047.096-.052.134-.167.077-1.488-.491-1.666-1.786-1.019-3.175Z" fill="#ffd300"/>
      <path d="M20.644,26.56s-.269-.04-.23.179c.04.22.149.29.23.182.08-.112.13-.3,0-.36Z" fill="#fff"/>
      <path d="M23.708,27.317s-.219.091-.14.34c.08.25.4.18.411.01.009-.169-.05-.408-.271-.349Z" fill="#fff"/>
      <path d="M31.936,37.87c.061-.131.289-.169.539,0,.234.303.686.405.777.802-.019.04-.278.057-.297.097-.374-.019-1.246.009-1.497-.179.16-.241.319-.481.479-.721Z" fill="#ffd300"/>
      <path d="M19.415,29.724c.126-.394.178.206.153.416-.043.364-.214.947-.092,1.44.22.895,1.013.93,1.125,1.242.047.096-.052.134-.167.077-1.488-.491-1.666-1.786-1.019-3.175ZM31.936,37.87c.061-.131.289-.169.539,0,.234.303.686.405.777.802-.019.04-.278.057-.297.097-.374-.019-1.246.009-1.497-.179.16-.241.319-.481.479-.721ZM36.009,28.046c-1.333.118-5.285,1.134-5.443-.628-.032-.134.101-.303.121-.322.555-1.129,2.56-1.21,4.004-1.445.499-.019.999-.04,1.497-.061.819.204,2.751.228,3.235.96-.739.084-.925.419-1.138,1.017-.695-.092-1.741-.397-2.216.179-.002.179.014.123-.06.3ZM60.81,40.386c-.502-.035-.542-.202-.779-.478-.041.019-.08.04-.12.061-.145.734-.332,1.255-.778,1.677-.474-.128-.607-.411-1.231-.134-.116-.07-.088-.226-.088-.287.071-.427.235-.606.397-.923.026-.051.053-.1.083-.155.068-.088.086-.207-.059-.12l-.421.359c-.194.622-.332,1.158-1.138,1.199-.504-.274-.536-.8-.958-1.138l.06-.12c.759-.3,1.518-.598,2.277-.899.462-1.484.03-2.368-.989-2.746-2.211-.821-8.263.883-11.052.171-1.146-.293-2.675-1.263-3.115-2.277-.131-.304-.176-.851.01-1.279.058-.132-.132-.113-.19-.099-.08.178-.159.36-.239.539-.58-.12-1.158-.239-1.738-.36-2.722-.089-4.59.931-5.87,1.499-2.572,1.138-4.206,3.114-9.357,2.406-.194-.091-.248-.03-.288-.011.056,1.001.677,1.14.714,2.226-.372.638-.925.899-1.493,1.189-.145.08-.214-.188-.289-.421-.105-.067-.091.163-.13.182.084.832-.446,1.161-1.019,1.499-.138.092-.163.072-.218-.312-.199-.322-.3-.387-.5-.708-.088-.137-.168-.14-.12.061-.055.638-.377.914-.839,1.138-.192.134-.286.144-.24-.061-.025-.526-.282-.899-.718-1.017-.077.765-.57.996-1.138,1.258-.199.104-.216.053-.179-.18.095-.394.039-1.001-.351-1.122-.143.706-.921,1.228-1.746,1.244.109-.507.346-.765.299-1.32-.039-.038-.08-.206-.119-.246-.281.665-.738.973-1.438,1.266-.159.038-.387.131-.446.072.108-.043.202-.579.414-.796.221-.277.412-.376.631-.655-.04-.019-.08-.04-.12-.059-.459-.021-.919-.041-1.378-.061.069.571.007.917-.359,1.199-.267-.11-.477-.513-1.286-.45-.238-.236-.021-.217-.05-.596.16-.281.277-.293.438-.572l-.061-.059c-.46.292-2.283,1.913-2.995.718-.166-.185-.161-.271-.12-.539.454-.435,1.22-.379,1.736-.778-.019-.041-.039-.08-.059-.121-.67.022-1.466.442-1.797.241-.296-.156-.374-.44-.6-.658-.01-.346.024-.584.12-.778.06-.022.12-.041.179-.061,2.325.749,5.161,1.811,8.266,1.017.699-.279,1.398-.558,2.097-.839.021.021.04.04.061.061.04.258.08.52.12.778.059-.019.119-.04.179-.061.835-1.09,1.111-1.234.76-2.934.06.061.265.233.324.293.518.536.887.751.501,1.755,1.087-.204,1.469-1.338,1.304-2.361.08.061.279.153.345.312.1.178.147.411.247.593.059-.041.225-.319.265-.399.19-.762.555-.402.926-1.452.079-.226.011-.646.064-.858.037-.145.143-.191.175-.327.076-.32.121-.73.096-1,.115-.148.218-.247.314-.497.123-.319.223-.831.23-1.252,1.572.156,3.526.427,5.291.399,1.211-.035,2.436-.201,3.654-.3,8.156-1.496,10.286-1.237,15.246-.239,2.01.405,5.712.341,5.421-1.738-.278-1.987-4.735-1.939-6.918-1.438-3.945.906-8.007,1.445-12.131,2.218-1.87.349-4.566.789-6.35.059-1.818-.745-3.021-2.707-1.258-4.372,2.12-2.002,8.249-1.164,9.764-3.476.653.41.049,1.719-.12,2.157.755-.209,1.295-.674,2.276-.84,1.39-.233,2.666.524,4.074.182,1.323-.324,2.587-1.604,4.133-.839-.019.038-.039.08-.058.118-1.519.271-2.382,1.727-3.715,2.277-1.09.451-2.581.078-3.696.136,0,.021.101.085.101.105,1.598.674,1.432,1.44,2.273,2.073-.061.04-.236.104-.296.144-.721.365-1.877.046-2.516-.241-.739-.457-1.479-.917-2.217-1.377-1.987-1.129-8.086-.931-8.865,1.138-.526,1.284,1.019,1.952,3.023,1.779,1.559-.137,3.234-.494,3.866-.459v-.062c-.04-.059-.08-.12-.12-.18-.12-.059-.24-.118-.36-.179.02-.04.04-.08.06-.121.719-.137,1.046.142,1.677.3.148-.427.278-.823.599-1.078.636.134,1.543.815,1.978.48.776.407,2.714,1.089,3.772-.18-.364-.136-1.065-.717-1.138-1.146.709.147,1.449.796,2.277.847.041-.059.08-.118.12-.178.02-.239-.062-.513-.041-.753.023-.134.136-.188.34-.025.619.389,1.646.883,2.577.718.051-.505-.473-.773-.431-1.344.393.207,2.094,1.073,2.348.866-.02-.3-.198-.69-.218-.989.08.08.318.249.398.328.319.281.639.558.958.839h.12c.212-.528.332-1.116.613-1.55.164-.137.125.153.165.172.297.808.883,1.492,1.558,1.799.419-.491-.024-1.215.997-2.058,0,.04-.158.52-.158.56-.018,1.122.038,1.716.719,2.277.624-.124.592-.646.958-1.02.633-.644,2.062-.23,2.793-1.307-.607,1.872-1.771,1.599-2.247,2.36-.422.67-.036,1.122-.247,2.124-.105.501-.442.765-.658,1.138h.059c.718-.327,1.094-1.001,1.738-1.317.874-.429,2.389.207,3.647-.349-1.085,1.942-2.182,1.253-3.555,1.65-.612.178-.864.542-1.35.794-.71.37-1.677.499-2.577.66-2.013.36-4.914-.301-6.335-.351-.056.057-.045.201.046.29,1.079,1.317,2.324,2.092,4.433,2.396,2.78.4,6.09-2.782,8.027-.18-.04.041-.08.08-.12.121-.139-.041-.28-.08-.419-.121-.04.041-.08.08-.12.121.452.85,1.476.772,1.558,2.095-.019.041-.04.08-.059.121-.241-.08-.479-.159-.72-.239-.02.019-.04.038-.059.059.252.477.759,1.016.779,1.497-.221-.038-.44-.08-.659-.118l-.061.658c.1.065.226-.014.326.049.08.056.308.07.466.473-.695.254-.669.598-.851,1.153ZM55.11,40.367c-.268-.083-.231-.096-.402-.246-.217-.507-.063-.944.152-1.03.663-.013,1.274.285,1.634.582l-.238.113c-.439.14-.779.641-1.146.58ZM44.576,37.87c.069.131.139.925-.443,1.014.041.896-.432,1.537-.606,1.684-.563-.37-.875-.756-1.287-1.079-.085-.051-.08.08-.12.12.147.622-.526,1.473-1.093,1.588-.148-.542-.197-1.087-.464-1.483-.249-.145-.139.054-.179.073-.068.928-.474,1.43-1.049,1.843-.04-.019-.274.096-.209-.045-.17-.751-.651-1.189-1.199-1.558-.04.021-.079.04-.119.059.032,1.062-.419,1.505-1.079,1.859-.06-.041-.12-.08-.179-.121-.588-.552-.28-.647-.42-1.138-.259-.019-.433.062-.779-.059-.139.022-.04.08-.059.12.175.389.183.746.059,1.199-.08.057-.159.118-.238.178-.371-.36-.845-.28-1.233-.214-.407-.614.01-1.072-.145-1.283-.495.397-1.261,1.532-2.32,1.095-.139-.101-.21.038-.436-.316.015-.497.152-.513.36-.78.439-.199.879-.4,1.317-.6v-.059c-.231.006-.903.08-1.506.456-.707-.032-1.729-.598-.949-1.236,1.181-.665,6.281.929,9.003-1.166.136-.107.102-.233.102-.271-1.556-1.011-2.021-2.385-.599-3.895.059,0,1.383-.274,3.054.011.184.002.399.057.554.175-.563,2.011,1.464,2.896,2.262,3.827ZM11.089,36.493c.94.16,1.642,1.247,2.097,1.917v.061h-.301c-.949-.287-1.806-.29-2.156-1.199.104-.362.181-.529.359-.778ZM17.618,37.572c-.288.378-.726.584-1.257.719v-1.618c.002-.03-.038-.037-.061,0-.395.234-.873.576-1.531.386.272-.545.344-1.248.213-1.224h-.06c-.595.132-1.013.387-1.635.292-.165-.032-.082-.115-.043-.172.14-.36.28-.718.42-1.078-.615.1-1.153.198-1.747-.061.141-.14.349-.279.489-.418.117-.153.2-.322.299-.481-.04-.038-.08-.08-.12-.118-.516.148-1.072-.126-1.515-.292.147-.183.248-.317.497-.489.225-.094.43-.249.359-.357-.059-.041-.051-.14-.162-.163-.601-.073-1.23-.11-1.635-.478.041-.061.14-.137.179-.198.511-.427.606-.384,1.378-.36,0-.019.104.003.009-.145-.346-.547-.166-1.701-.222-1.464-.144.762-1.315.861-1.284.592.021-1.323-.488-.89-.585-1.209-.071-.233.117-.475.466-.682.808-.485,1.282.453,1.138-.027-.08-.1-.091-.234-.239-.3-.633-.123-1.17-.41-1.319-.719-.118-.293-.081-.727.146-1.078.077-.089.154-.134.274-.179.671-.099,1.304,1.186,1.377.899-.344-1.019-.486-2.165.442-2.545.191-.051.56-.067.816.207.426.52-.056,1.91,0,2.934.063,1.138.689,2.513,1.198,3.355.424.631.919,1.25,1.558,1.859.57.443,1.448,1.009,2.041,1.132.076.182.223.504.296.724.106.112.188.188.368.316.317.507.774,1.121,1.771,2.457.096.081.1.22.12.301-.966.179-1.674-.029-2.439-.317ZM13.245,25.351c.002-.169.305-.198.437-.198.427.021.447.153.702.317.482.598-.536,1.184-.946,3.007-.04.132-.079.254-.099.254-.021-.019-.068-.108-.093-.206-.278-1.102-.033-2.036,0-3.174ZM17.495,32.516c-.305-.711.498-1.566.722-2.012.056-.16-.002-.124-.059-.061-.28.3-.545.644-.824.944-.046.048-.13.013-.123-.057,0-.179,0-.4.048-.528.261-.799.44-1.226,1.082-1.8.067-.035-.007-.153-.124-.118-.299.102-.753.354-1.052.456,0-.102.06-.373.12-.513.178-.261.333-.529.572-.721.073-.029.132-.024.183.003,0,.116.025.252.113.379.214.306.514.697.6.737.171.081.344.163.483.258-.541,1.17-.938,2.408.539,3.476.287.207.646.354.938.399.182.348,1.111.564,1.338.26.32-.059.639-.12.958-.18,1.028-.446,1.486-1.39,1.498-2.516.675-.025.85-.327,1.197-.658.041.059.08.12.12.18.281.507.003,1.32-.24,1.677-.179-.18-.359-.36-.539-.541h-.06c.158.563.521,1.097.299,1.738-.04-.021-.08-.04-.12-.059-.099-.306-.217-.453-.539-.541v.061c.372.625.778,1.794,0,2.396h-.061c-.009-.609-.246-1.049-.598-1.319-.04.04-.08.081-.12.12.167.383.626,1.371.34,1.862-.48-.359-1.032-.896-1.511-1.256,0,.061.146.405.211.478.319.481.621,1.119-.092,2.172-.395-1.177-1.957-2.038-2.255-2.717-.064,1.172,1.443,1.998.252,3.654-.039-.019-.08-.038-.119-.061-.308-1.03-1.174-1.559-1.678-2.395-.355-.59-.522-1.013-.316-1.964-.109-.009-.183.086-.223.107-.12.199-.273.521-.393.719-.175-.108-.163-.23-.207-.359-.172-.732.32-1.012.497-1.655.018-.064.032-.132.042-.202-.02,0-.029-.187-.18.175-.14.274-.164.379-.423.523-.034-.07-.049-.258.004-.34.136-.263.229-.512.246-.928-.027-.061-.088-.011-.104.037-.033.035-.057.105-.09.188-.06.14-.112.204-.171.344-.08.179-.162.204-.184.156ZM21.513,27.028c-.12.178-.24.36-.36.539-.14-.019-.28-.04-.419-.061-.505-.201-.909-.781-.749-1.307.08.019.28.03.36.051.568.23.938.619.938.619.249-.051.279.051.23.16ZM23.07,27.806v-.3c.019-.04.039-.08.059-.118.34-.131.949-.231,1.319-.182.276.038.47.019.602.128-.004.006-.008.014-.011.022-.326.784-1.7,1.068-1.968.45ZM18.447,27.138c-.415-.821.29-1.878-.05-2.954.556.207,1.106.759,1.158.818.017-.509.244-1.248.449-1.558.12.099.26.249.37.469.139.22.28.44.418.66.098-.207.153-.577.25-.784.163-.351.396-.692.559-1.043.16.419.37,1.017.529,1.438.23-.08.065-.171.179-.351.1-.478.261-.698.379-1.017.216.368.391,1.119.499,1.696h.061c.039-.019.08-.04.12-.061.16-.37.309-.6.469-.818.57.588.36,1.59.5,1.618.22-.011.489-.51.669-.67.318.351.137,1.172.329,1.358.07.059.15-.07.191-.112.403-.354.755-.6,1.288-.359-.11,1.038-.211,2.76-.749,2.996-.1.099-.399-.159-.538-.179.595,1.059.178,2.304-1.019,2.334-.18-.099-.36-.199-.539-.3-.1-.038-.16-.019-.12.121.776,1.309-.45,2.699-1.617,2.755-.04-.019-.08-.04-.12-.061l.06-.359c1.008-.056,1.746-1.255,1.318-2.336h-.059c-.178.494-.316.735-1.019.717-.217-.035-.426-.254-.54-.418.056-.839.626-.735,1.079-1.138v-1.379c.737.528,1.749.158,2.131-.4.053-.145.084-.258.1-.343.153-.295.603-.301.61-.824-.25.507-.949.351-1.549.363-.541.013-1.15.077-1.205-.038-.04-.18-.072-.475-.112-.654-.042.032-.128.16-.128.226-.046.887-.061,1.703-.141,2.561-.422-.191-.896-.348-1.502-.233v-.057c.28-.899.559-1.798.839-2.698-.01-.118-.07-.14-.12-.061-.101.276-.143.47-.359.539h-.061c-.381-.019-.615-.467-.938-.628-.329-.08-.559-.089-.898-.129-.16-.1-.3-.48-.44-.698-.074-.12-.147-.043-.049.448.148.376.519.58.519.58,0,0,.013.545.191.848.307.523.894.542,1.377.899-.116.344-.407.842-.299,1.197.262.555.762.831.659,1.618-.233.112-.345.166-.718.179-.446-.159-.772-.304-.959-.719-.221-.36-.061-.847.12-1.137l-.12-.121c-.24.041-.48.08-.72.121-.424-.089-.769-.523-.89-1.126-.002-.011-.032-.033-.066-.054.053-.096.096-.188.095-.209-.033-.218.14-.301.133-.539ZM61.921,39.525s-.084-.525-.332-.895c.427.218.294-.99.146-1.277.85-.293-.101-1.917-.737-2.404.187-.145.537.099.41-.129-.395-.502-.687-1.049-1.077-1.306-.285-.186-.941-.075-.941-.075,0,0-.567-.494-1.062-.442-1.103.121-2.875.837-4.408,1.158-2.16.456-4.69-.909-5.12-1.794,2.017.241,5.192.953,7.276.238.961-.328,1.7-1.186,2.636-1.438.438-.019.879-.038,1.318-.061,1.827-.405,2.382-1.504,2.875-3.294-.056-.357-.136-.188-.179-.061-.745,2.041-2.966.718-4.803,1.728-.368.418-.269-.048-.299-.179-.804-2.771,3.061-1.569,2.286-4.783-.02,0-.079-.051-.1.139-.272,1.389-1.625.835-2.715,1.398-.888.459-.89,1.119-1.069,1.167-.549-1.046-.398-1.993-.01-2.825.137-.317-.188-.23-.608.04-.601.41-1.102.909-1,1.956-.05,0-.205-.018-.43-.198-.765-.791-.753-1.303-.898-1.738-.061.041-.12.08-.18.121-.442.188-.838.757-.968,1.247-.636-.223-.692-.885-1.548-.947v.118c-.123.207-.115.395-.06.66.049.129-.091.099-.239,0-.478-.217-1.338-.606-1.797-.419.02.359-.08.639.248,1.137-1.016-.038-1.728-.746-2.705-.837,0,.04-.059.129-.059.169-.06.298-.06.55-.12.85-.505-.013-1.653-.646-2.084-.928,2.985.391,4.783-3.358,6.756-2.548v-.061c-.405-.679-1.081-1.183-2.277-1.078-.846.077-1.643.764-2.455,1.019-1.628.512-3.131-.459-4.852-.12-.47.092-.684.36-1.198.3.072-.606-.148-1.453-.539-1.799-.04.021-.08.041-.12.061-.752,1.72-5.098,1.786-8.096,2.727-1.753.548-3.452,1.932-2.627,4.102.863,2.264,4.559,2.569,7.549,1.977,4.518-.891,9.409-1.309,13.898-2.457,2.237-.571,4.842-.137,5.871,1.081.006,2.189-3.626,1.961-5.512,1.496-2.327-.574-6.924-1.307-9.464-.598-3.5.977-10.239,1.791-14.197.719-.14-.507-.298-1.116-.179-1.677.72-.296,1.186-2.691.898-3.535-.603-.145-.876.027-1.438.12-.2-.36-.399-.719-.599-1.078h-.061c-.089.261-.081.274-.36.359-.102-.564-.367-1.166-.718-1.497-.04.019-.08.038-.12.061-.061.139-.12.279-.179.418h-.24c-.065-.226-.277-1.059-.36-1.138-.061-.019-.12-.038-.18-.059-.219.26-.439.52-.658.78-.217-.257-.252-.52-.599-.66-.28.379-.559.759-.839,1.138-.081-.021-.16-.04-.24-.061l-.479-.718c-.039.019-.08.04-.12.059-.16.4-.32.799-.48,1.197-.446-.073-.782-.293-1.257-.178.068,1.339-.038,2.458-.12,3.715-1.008.389-1.225,1.11-1.131,2.171.008.093.434-.249.437-.041.004.223-.413.995-.395,1.102,0,.748.227.681.292,1,.045.223-.028.395.021.561.136.462.272.65.298,1.078-1.267-.105-4.181-3.015-3.893-4.554.193-1.035.883-1.875,1.137-2.755.436-1.515-.665-2.932-1.797-2.816.117.526.421.705.299,1.377h-.059c-.041-.021-.08-.041-.12-.061-.317-.95-.927-1.832-2.276-1.797.351.464.646.786.658,1.618-.32.373-.531.735-.539,1.438-.029.255-.104.124-.179.085-.576-.47-1.004-.808-2.015-.582-.404.148-.827.641-.501.555.654.073.877.274,1.197.66-.128.459.038.925.245,1.215.166.234.398.33.235.402-.326.246-.517.592-.6,1.078h-1.198v.061c.42,1.009,1.082,1.275,1.818,1.287.356.005.839.223,1.106-.11.144-.035.194.373.238.453-.664.032-1.359.509-1.484,1.067.498.18.914.348,1.413.528.226.013.251.108.084.191-.239.18-.479.36-.719.539.04.061.08.121.12.18.519.167.873.405,1.499.537,0,.081.023.102-.084.217-.2.14-.316.303-.516.443.352.4.91.424,1.557.539.048-.006.073.14,0,.3-.199.143-.359.443-.419.719.705.016,1.315.069,1.917-.059,0,.08.071.159,0,.322-.135.268-.253.364-.419.576.02.04.04.081.06.12.627.024,1.2.037,1.738-.061,0,.22.071.465,0,.66-.159.36-.311.767-.311.767,0,0,.83.206,1.953-.778.198.172.538.32.873.371-.079.23,0,.124-.179.239-.455.265-1.579.325-2.097.3-.719-.04-1.403-.013-2.122-.051-.882-.271-1.475-2.811-3.611-2.876-.313.013-1.068.29-1.155,1.068.04.022.088.057.179-.008.394-.188.563-.104.899.069.04.239.08.478.12.721-1.394-.121-2.547-.166-2.695,1.256.641-.338,1.061-.434,1.404-.301.081.469.347.657.633,1.022.042.061.077.099.077.178-1.061.335-1.125,1.645-.677,2.216.061.083.197-.108.222-.249.175-.829.515-.641.702-.925.465.391.816.62,1.532.395.441-.14.694-.434,1.018-.488.041.108.045.523.379.823.085.569-.189,1.186-.089,1.119.349-.236,1-.488,1.274-.869.546-.065.903-.692.807-1.271h.581c.02.061-.154.124-.257.319-.18.438-.36.765-.539,1.205.02.019.039.04.06.061.835.006,1.26-.265,1.929-.716-.055.311-.372.668-.551.834-.124.161-.011.166.473.166,1.024-.013,1.335-.316,1.743-.765h.179v.121c-.02.279-.041.558-.06.839.82-.166,1.554-.357,1.882-1.226.347.528.131.885.334,1.048.02.019.041.038.06.057.633-.194,1.029-.6,1.377-1.078.061.041.12.08.18.121.041.239.08.478.12.717.322-.061,1.317-.394,1.678-1.328.79-.196,1.681-1.064,1.879-1.341.311-.697-.354-1.285-.588-2.101.5.08,1.266.258,1.737.296,1.036,0,1.921-.121,3.036-.467,0,.019.593-.22.764-.27,2.167-.845,2.993-1.492,4.253-2.098.739-.279,1.477-.558,2.216-.837.041,0,.116-.072.144.011-.233,1.04-.83,1.499.156,2.864.263.364.861.686.851.899-1.07.821-3.865,1.014-5.104.802-.478-.438-.853-.813-1.333-1.252-.206-.08-.395.01-.468-.078-.395-.359-1.419.105-1.532.186-.197.097-.272.284-.381.459.359.054.999.105,1.172.36.044.129-.024.23-.152.236-.466.024-1.036.038-1.402.285-.813.548-1.199,1.435-.874,1.755.379-.36.52-.555,1.318-.539.166.328.517.319.779.539-1.063,1.135-.662,1.869-.277,2.473.019.03.103.064.157-.017.229-.304.318-.832.659-1.017.753-.408.917.126,1.916-.778.089-.137.169-.252.24,0,.108.781.514.491.36,1.916-.024.088-.069.147.128.056.198-.091.651-.215.651-.238.493-.182,1.111-.969,1.138-1.617.007-.413.132-.215.239,0,.236.359.455.628.779.899l.419-.36c.394-.408.674-.679.838-1.377.077-.124-.015-.306.301.061.291.341.454.829.538,1.377.037.199.12.101.36,0,.43-.344.939-.767,1.197-1.377.041,0,.056-.252.12,0,.08.319.028.622.108.941.873-.195,1.357-.848,1.654-1.384.092-.204.207-.191.335-.096.144.257.523.497.742.718.04.144.092.182.181.061.155-.309.926-1.18.883-1.883.659-.439.567-1.08.411-1.411-.427-.906-2.249-1.476-2.217-2.577-.099-.718.473.52.779.778.685.584,2.01,1.191,2.935,1.438,2.447.654,8.624-1.269,10.854-.22.593.278.795.877.708,1.658-.06.14-.12.279-.179.419-1.036.752-1.492-.241-2.953-.271-.832-.228-1.133.671-1.361,1.35-.054.376.086.421.181.359.219-.18.479-.584.834-.593.077.236.316.465.611.604-.365.462-.478,1.272-.069,1.907.121.073.175-.013.181-.121.195-.845.936-.976.936-.976,0,0,.257.402.621.437.435.041.595-.293.958-.239.112.784.557,1.18,1.136,1.508.225.137.449-.01.543.045-.088-.367-.293-.708-.12-1.135.119-.365.247-.145.478-.359.16-.419.32-.84.48-1.258.744.306,1.165.223,1.378,1.078.1-.08.402-.469.481-.893.206-.804-.148-1.106-.148-1.106Z" fill="#3d1e0b"/>
      <path d="M20.854,34.576s1.078-.075,1.227-1.317c.15-1.244-.089-1.693.075-1.964.089-.145-.029-.252-.144-.36-.098-.091-.179-.193-.274-.207-.107-.016-.319.096-.535.156-.21.057-.426.062-.484.129-.12.132-.269.808-.21,1.287.061.48.33,1.363.346,1.722.014.36-.151.555,0,.555Z" fill="#3d1e0b"/>
      <path d="M34.045,42.076s.296.791.207.944c-.09.153.592-.217.673-.781-.261-.395-.879-.163-.879-.163Z" fill="#009cd5"/>
      <path d="M30.552,42.768s.261-.549.655-.71c.395-.161-.422-.116-.493-.789.009-.287-.521.7-.162,1.499Z" fill="#009cd5"/>
      <path d="M31.72,37.618s-.611-.252-1.401.265c.67.169.958.478.958.478,0,0,.275-.682.443-.743Z" fill="#009cd5"/>
      <path d="M29.815,39.226s-.838.347-.934,1.09c.467-.395.635-.443.887-.36-.167-.383.048-.73.048-.73Z" fill="#009cd5"/>
      <path d="M13.29,42.491s.592-.163.807-.67c-.283-.523-.883-.394-.883-.394,0,0,.274.47.077,1.064Z" fill="#009cd5"/>
      <path d="M10.026,40.125s-.89.472-.702,1.508c.299-.59.814-.813.814-.813,0,0-.215-.395-.112-.695Z" fill="#009cd5"/>
      <path d="M8.175,38.583s.711-.368,1.156-.069c.052-.48.215-.644.215-.644,0,0-1.122.009-1.371.713Z" fill="#009cd5"/>
      <path d="M9.752,36.63s.599-.155.891.163c.043-.335.342-.568.342-.568,0,0-.78-.325-1.233.405Z" fill="#009cd5"/>
      <path d="M10.123,25.951s-.766-.48-1.502-.022c.45.083.938.564.938.564,0,0,.022-.427.564-.542Z" fill="#009cd5"/>
      <path d="M11.727,24.378s.465-.201.689.014c-.116-.643-.418-1.122-1.138-1.247.473.588.449,1.232.449,1.232Z" fill="#009cd5"/>
      <path d="M13.54,24.913s.681.008.843.161c-.038-.462-.254-1.084-1.03-1.37.341.488.279,1.038.186,1.209Z" fill="#009cd5"/>
      <path d="M53.599,40.461s.38-.488.745-.643c.014-.469.149-.65.149-.65,0,0-.718.067-.894,1.293Z" fill="#009cd5"/>
      <path d="M55.035,42.079s.339-.724.888-.745c-.19-.438-.386-.765-.461-.732-.075.035-.718.678-.427,1.476Z" fill="#009cd5"/>
      <path d="M59.084,43.023s-.534-.502-.139-1.186c-.363-.386-.887-.191-.918-.086-.033.107.32,1.005,1.058,1.272Z" fill="#009cd5"/>
      <path d="M61.104,40.394s.482.341.557.673c.267-.716.085-1.636-.096-1.57-.182.064-.577.394-.46.898Z" fill="#009cd5"/>
      <path d="M9.549,29.477s-.536.402-.972.268c.771.737,1.358.77,1.358.77,0,0,.15-.585-.386-1.038Z" fill="#009cd5"/>
      <path d="M21.018,31.177s-.374.194-.284,1.003c.089.808.419,1.618.434,1.931.015.316.345-.178.554-.596.21-.421-.075-1.948.12-2.262.194-.314-.135-.48-.3-.152-.164.332-.225.721-.164,1.454.06.733-.195.3-.255-.271-.06-.568.12-.823.164-1.032.046-.21-.164-.152-.269-.075Z" fill="#009cd5"/>
      <path d="M42.95,37.507s.49-.053.552.36c.061.416-.038.392-.277.507-.238.115-.253.322.1.253.352-.068.521-.169.506-.537-.015-.367-.023-.743-.521-.819-.5-.077-.537.236-.36.236Z" fill="#966a3d"/>
      <path d="M19.766,31.069s.508.526.762.475c.254-.053-.017.692-.017.692,0,0-.66-.354-.745-1.167Z" fill="#966a3d"/>
      <path d="M22.358,32.271s.609.051.915-.558c.304-.611-.458.389-.745.051-.288-.34-.17.424-.17.507Z" fill="#966a3d"/>
      <polygon points="17.236 74.573 17.242 49.787 20.477 47.032 20.404 71.252 17.236 74.573" fill="#ffd430"/>
      <polygon points="17.236 74.573 17.242 49.787 20.477 47.032 20.404 71.252 17.236 74.573" fill="none" stroke="#785342" stroke-linejoin="round" stroke-width=".67"/>
      <path d="M50.107,70.587l.09-23.87,3.1,2.339.03,25.402-36.091.115,3.167-3.321s1.337.907,3.412.748c3.244-.249,6.988-3.578,11.315-.249,2.08-1.331,4.327-2.079,6.323-1.497,1.997.582,4.161,1.58,5.824,1.414,1.664-.166,2.83-1.081,2.83-1.081Z" fill="#e29625"/>
      <path d="M50.107,70.587l.09-23.87,3.1,2.339.03,25.402-36.091.115,3.167-3.321s1.337.907,3.412.748c3.244-.249,6.988-3.578,11.315-.249,2.08-1.331,4.327-2.079,6.323-1.497,1.997.582,4.161,1.58,5.824,1.414,1.664-.166,2.83-1.081,2.83-1.081Z" fill="none" stroke="#785342" stroke-linejoin="round" stroke-width=".67"/>
      <path d="M51.644,47.714l-1.59-1.081s-.954.827-2.545.764c-1.59-.064-4.834-1.982-7.251-2.1-3.32-.159-4.903,2.018-4.995,2.457,0,0-1.008-1.837-3.718-1.947-1.672-.069-5.026,1.336-6.743,1.653-1.717.319-4.008-.764-4.008-.764l-1.463,1.209h-3.197v27.84h15.282s-.496,3.098,3.887,3.423c.447.032,3.855.077,3.685-3.409h15.764v-28.012l-3.111-.033Z" fill="none" stroke="#3d1e0b" stroke-width=".67"/>
      <line x1="50.107" y1="70.587" x2="53.327" y2="74.459" fill="#e29625"/>
      <line x1="50.107" y1="70.587" x2="53.327" y2="74.459" fill="none" stroke="#785342" stroke-width=".67"/>
      <path d="M35.366,71.557s-2.508,2.219-2.604,2.58c-.097.362.361.579.361.579,0,0-1.76,2.097,1.23,3.302,2.989,1.207,4.395-2.245,3.085-4.098-1.688-2.385-2.073-2.363-2.073-2.363Z" fill="#603826"/>
      <path d="M36.796,74.538c-.011.022.214.328.214.328.093.166.271.753.271.971,0,.894-.763,1.554-1.783,1.554s-1.784-.759-1.784-1.653c0-.324.155-1.012.358-1.11,0,0-.467-1.231,1.154-1.44.954-.121,1.766.982,1.57,1.349Z" fill="#835221"/>
      <path d="M21.392,29.125c.603-.021.894.002,1.158.26.088.126.07.262-.08.34-.332-.037-.406.241-.659.394-.067-.009-.112-.134-.164-.217-.12-.218-.255-.376-.375-.596-.046-.166-.067-.172.12-.18Z" fill="#ffd300"/>
      <path d="M21.351,29.194s.332.312.416.523c.085.207.085-.322.265-.201.18.124.654.303.531-.085-.124-.387-1.212-.34-1.212-.238Z" fill="#ffe280"/>
      <path d="M19.924,50.115l-.103-.431s-.03-.534-.104-.682c-.297-.089-1.112.831-1.231,1.008-.118.179-.103.193-.103.193l-.104.682-.059,1.467-.029,1.349.029.933-.089.788.015.65.014.504.06,2.312v.875l-.06.607-.059,1.496-.03.979.015.727v2.948l-.015,2.017-.06.784-.03.829v.906l-.134,1.008-.147.979-.104.102-.089-.014-.014-.8.014-1.126v-2.09l.016-1.735-.046-1.999.016-1.661.014-1.821-.014-1.677.03-1.526.029-2.192.045-3.913s.148-2.682.178-2.801c.03-.118.933-.918.933-.918,0,0,1.334-1.052,1.394-1.038.059.016.104,2.505-.015,2.505s-.163-.222-.163-.222Z" fill="#ffe28a"/>
      <g>
        <path d="M26.916,55.565c-.397-.284-.777-.628-.991-.845v-.743s.644,0,.975-.083c.33-.083.545-.348.116-.348s-1.075-.016-1.075-.016v-1.276c0-.408-.165-.493-.314-.493-.148,0-.363.084-.363.612v1.156h-1.604s-.497.893-.58,1.043c-.082.147.315-.1.595-.217.281-.115,1.372-.312,1.588-.312,0,0,.088.77-.497,1.256-.579.478-.958.974-2.662,1.387-.167.041.1.397.678.48.578.081,1.311-.247,2.264-1.521.199-.263.249-.148.249.132s.083,1.885-.067,2.232c-.149.348.1.478.298.115.199-.363.314-1.106.314-2.809,0-.182.38.265.843.447.462.182.628.083.231-.198ZM30.2,55.648c.353-.426.593-.842.593-.842,0,0,2.031.013,2.206-.061.145-.131.355-.692.281-.765-.072-.07-.393.328-.581.328h-1.625s.813-1.561.929-1.763c.145-.043.232-.131.218-.276s-.522-.421-.624-.349c-.101.073-.464.262-.464.262h-1.305c.043-.202-.291-.58-.392-.58-.102,0-.058.045-.247.596-.188.55-1.044,1.247-1.044,1.247,0,0-.072.113.116.116.667.014,1.335-.871,1.335-.871h1.377c.175,0,.247.057.175.233-.072.174-.788,1.408-.788,1.408-.371.013-1.496.006-1.867-.016-.348-.021-.435-.145-.536.086-.102.233-.188.552-.188.552.13.204.58-.131.768-.131l1.2.01c.26,0,.288.016.288.016-.242.402-1.269,1.807-2.613,2.449-.639.304-1.413-.239-1.413-.096-.046.383.48.721,1.205.839.624.102,1.52-.778,1.869-1.142.348-.364.446-.183.493-.016.363,1.279.479,1.539.711,1.539h1.553c.202,0,.304-.202.493-1.118.188-.912.319-1.32.087-1.437-.233-.116-2.002-.062-2.002-.062-.233,0-.302-.051-.208-.156ZM30.292,56.362c.088-.102,1.043-.045,1.189-.029.145.013.333.129.261.507-.072.376-.175.84-.291.899-.116.057-.783.072-.871.029-.086-.045-.609-1.044-.289-1.406Z" fill="#231f20"/>
        <path d="M23.879,62.312s-.177.513-.283.902c-.106.389-.478.937-.636,1.186-.16.247-.018.529.336.317.354-.212.849-.831.849-1.079.265,0,1.167-.07,1.167-.07l-.035,1.186s-.99.883-2.194,1.167c-.309.072-.548.335-.088.619.212.089.903.035,1.716-.638,0,0,.389-.3.459-.3.072,0,.018,1.043.018,1.344s.318.23.425-.247c.105-.478.265-1.645.265-1.645,0,0,.973-.848.725-1.15-.105-.088-.6.424-.6.424,0,0,.052-.706.052-.866.302-.054,1.104-.16,1.115-.354.017-.319-1.167-.214-1.167-.214,0,0,.052-.794.035-1.167-.009-.187-.352-.344-.46-.335,0,0-.318.054-.318.319v1.202h-.991s.053-.194.035-.371c-.017-.177-.3-.426-.424-.231Z" fill="#231f20"/>
        <path d="M28.154,61.659s.071,1.311-1.115,2.408c-.104.097-.136.403.354.144.541-.29.849-.815.849-.815h.761c.089,0-.613,2.626-2.531,3.009,0,0-.247.105.088.247.337.142,1.374-.206,1.923-.879.548-.671,1.051-1.794,1.228-2.396.478-.035,1-.033,1-.033,0,0-.805,2.653-2.576,3.857-.111.075.141.16.708-.035.566-.196,1.593-1.15,2.531-3.894,0,0,.921-.16,1.027-.107.106.054.017.284-.106.655-.124.372-.886,2.211-1.363,2.55-.206.143-.867-.214-.867-.124,0,.088.477.689.814.689s.761-.319,1.185-1.202c.426-.885,1.044-2.283,1.115-2.726.071-.443-.301-.689-.779-.548-.478.142-1.894.371-3.699.336-.178-.003-.053-.319,0-.601.054-.284.071-.851-.301-.851s-.247.319-.247.319Z" fill="#231f20"/>
        <path d="M41.821,51.911c-.233-.029-2.183.269-2.824.327-.641.059-1.268-.182-1.369.153-.102.336.262.582.581.627,0,0,.365,1.019.015,4.149-.024.214-.058.459.116.451.306-.014.51-.451.874-.466.364-.014,2.212-.161,2.431-.161s.175.073.204-.829c.029-.902-.014-2.985.102-3.567.116-.582.102-.655-.131-.684ZM38.968,54.269s1.266-.277,2.242-.263c.088.003.131.175.116.526-.014.349.043.478-.233.509-.277.029-1.849.202-2.024.233-.175.029-.145-.16-.13-.509.014-.351-.015-.392.029-.496ZM41.326,55.826c-.014.233.043.612-.16.612s-1.805.086-2.097.172c-.291.089-.014-.1-.057-.829,0,0,.859-.174,1.689-.202.829-.03.64.014.626.247ZM41.341,53.148c0,.217-.014.306-.204.306s-1.689.175-1.819.218c-.132.043-.378.086-.378-.102,0-.19-.103-.627-.103-.627.116-.045.116-.188.349-.217.233-.03,1.457-.19,1.864-.19s.291.159.291.611Z" fill="#231f20"/>
        <path d="M47.401,58.291c-.083-.333-.415-1.915-.415-2.621s.124-3.37.312-3.849c.187-.478.208-.603-.353-.603s-3.473.416-3.786.416-.411.381-.195.512c0,0-.025.204.154.258.124.124,1.248,2.621-.23,4.409-.161.196-1.102,1.331-2.6,1.145-.191-.024-.438-.043-.229.311s.978.749,2.081.271c1.101-.478,2.079-2.309,2.121-2.663.292,0,2.122-.021,2.122-.021,0,0-.125,1.975.666,2.642.181.153.437.124.353-.207ZM46.361,55.233c-.353.019-1.976.019-1.976.019,0,0,.041-.915.022-1.309,0,0,1.83-.126,1.975-.228.145-.105-.021,1.205-.021,1.518ZM46.611,52.258c-.062.416,0,.791-.209.853-.207.062-1.809.27-2.162.27-.055-.281-.144-.571-.246-.791-.132-.282-.264-.456-.171-.456,0,0,1.29-.062,1.955-.104.666-.041.895-.188.833.228Z" fill="#231f20"/>
        <path d="M38.587,61.638s.515.155,1.205-.069c.75-.246.804-.037.769.207-.035.245-.786.421-1.118.421-1.048,0-1.223-.56-.856-.56Z" fill="#231f20"/>
        <path d="M37.976,63.489s.786.017,1.503-.121c.715-.14,1.52-.437,1.449-.035-.07.402-.855,3.074-2.376,3.406-.207.045-1.398.244-1.607-.891-.05-.276.175-.017.472.104.297.124,1.048.246,1.694-.469.647-.718.978-1.137,1.101-1.661.017-.121-.013-.164-1.083.018-.822.14-1.276.786-1.642.088-.123-.453.489-.437.489-.437Z" fill="#231f20"/>
        <path d="M42.43,61.113s4.42-.086,4.769-.086-.088.383-.315.418c-.226.037-3.58.124-4.017.14-.437.019-.524.349-.733.191-.21-.156.21-.628.297-.663Z" fill="#231f20"/>
        <path d="M44.439,60.362s.227-.174.437-.086c.21.086.017.384-.07.681-.087.296-.139,1.186-.139,1.186l-.192.228s-.324-.033-.332-.26c-.017-.507.07-1.661.297-1.749Z" fill="#231f20"/>
        <path d="M47.041,62.512c-.016-.193-.611-.368-2.061-.384-1.449-.016-3.284.541-3.284.541-.192.228.035.665.157,1.084.098.336.32.76.506.786.462.061,2.097-.07,3.005-.14.909-.07,1.136-.123,1.327-.349.193-.228.368-1.346.349-1.537ZM43.512,63.945c-.069.226-.628.156-.89.121-.11-.016-.454-1.014-.279-1.084,0,0,.961-.296,1.048-.121.088.175.193.856.122,1.084ZM44.927,63.945c-.122.069-.681.104-.838.104s-.157-.053-.157-.297c0-.246-.088-1.012.139-1.084,0,0,.804-.069.89-.051.087.017.035.4.035.732s.052.525-.07.596ZM46.132,63.783c-.174.054-.741.145-.741.076,0-.07.042-1.22.042-1.22,0,0,.431-.011.658-.011s.265-.008.265.148c0,.158-.048.955-.223,1.006Z" fill="#231f20"/>
        <path d="M40.558,66.356s1.366-1.033,1.558-1.189c.191-.158.472.07.647.14.174.07,2.463,1.256,3.615,1.186.78-.046,1.524-.652,1.52-.646,0,0,.105.228-.052.489-.157.262-.843,1.03-1.931.867-.759-.113-2.872-1.304-3.397-1.566-.134-.067-.21-.07-.349.053-.14.123-.943.821-1.135.977-.193.156-.245.105-.403,0-.157-.105-.196-.218-.072-.313Z" fill="#231f20"/>
        <path d="M44.455,65.441s.218-.099.447-.077c.228.022.348.144.489-.022.142-.163.022-.325-.262-.413-.284-.086-.696-.054-.936.25-.144.183.127.348.261.262Z" fill="#231f20"/>
        <path d="M46.329,64.994s.653.392.871.402c.218.013.316-.077.131-.336-.186-.26-.49-.435-.871-.424-.244.008-.207.308-.131.359Z" fill="#231f20"/>
      </g>
    </g>
    <g>
      <path d="M100.963,55.664c.027.147-.027.319-.35.44-.566.246-.89.368-1.536.515-.188.024-.35-.097-.35-.196v-1.885h-8.055v1.298c0,.147-.135.319-.647.489l-1.239.416c-.215.048-.431-.123-.431-.319l.108-2.79v-7.42l-.27.194c-1.913,1.397-3.96,2.669-6.196,3.453l-.242-.319c3.287-2.4,6.492-5.07,8.324-8.425h-5.415c-.593,0-1.213.073-1.94.22l-.62-.979h11.395v-2.449l-1.212.123-3.826.222-4.768.121-.081-.44,4.445-.638c4.417-.636,8.674-1.665,12.769-3.012.566.735,1.266,1.615,1.832,2.449.053.147.053.368-.162.416-.539,0-.943-.293-1.455-.319l-4.149.662-1.239.148v2.717h6.492l1.158-1.397c.108-.096.377-.121.539-.022.862.561,1.589,1.1,2.397,1.712.08.099.162.319,0,.418l-.188.048h-8.621l.269.319c1.94,2.302,4.822,3.355,7.624,4.238l1.994.44-.054.392c-1.185.097-2.424.44-3.071,1.395-3.125-1.347-6.52-3.723-7.813-6.784h-.727v2.13l.053,2.058c0,.147-.053.317-.242.416-.539.246-1.131.416-1.751.491-.216.022-.296-.124-.324-.198l.108-2.717v-2.181h-.592c-1.024,1.593-2.344,3.208-3.825,4.579l2.02.737h7.166l.808-.81c.081-.121.404-.121.539,0l1.779,1.224c.108.124.188.271.053.442-.215.222-.458.368-.539.636l.054,7.739ZM98.727,47.191h-8.055v2.669h8.055v-2.669ZM98.727,50.645h-8.055v3.135h8.055v-3.135Z" fill="#231f20"/>
      <path d="M137.465,44.471c-.161.172-.403.271-.646.198l-.323-.245c-.862-1.397-1.859-2.768-3.233-3.894l.215-.44c1.644.513,3.583.929,4.58,2.423.297.686-.054,1.445-.593,1.958ZM158.397,48.366c-.324,0-.539,0-.996.123-.647.147-1.24.513-1.724,1.028-1.051-.489-2.021-1.298-2.91-2.081-.135-.026-.135.147-.161.244v1.102l.08,1.444c-.027.172-.242.293-.539.392-.431.172-1.266.465-1.455.44-.108-.024-.215-.097-.242-.194v-.638h-4.714c0,1.445-.027,2.498.108,3.087.323.513,1.051.513,1.697.539,1.616.048,3.286.048,4.903-.025.754-.099,1.131-.587,1.374-1.419.242-.858.485-1.716.674-2.597l.485.024c.027.981.081,2.009.351,2.964.242.489.808.882,1.293,1.151-1.267,1.739-3.422,1.886-5.603,1.91-1.805,0-3.637.073-5.361-.147-.674-.097-1.32-.295-1.751-.834l-.135-.293-.108-.466c-.081-2.178-.027-4.31-.054-6.563-1.563,1.224-3.071,2.376-4.795,3.233-.135-.025-.269-.198-.404-.198-.053,1.446.324,2.793.512,4.189,0,.343.081.709-.215.981-.458.465-1.213.171-1.724-.026-.754-.392-1.158-1.175-1.077-1.958.242-1.03.485-2.229.35-3.38-.485-.832-1.536-1.103-2.424-1.347l.026-.515c.943.025,2.129.198,2.828-.488l1.105-1.961,2.02-3.894,1.132-2.35.538.171c-.323.931-.673,1.886-1.024,2.768l4.149.024c.054-1.126-.027-2.203,0-3.281h-1.616c-.458,0-1.078.123-1.563.22-.135-.343-.377-.636-.512-.979h3.69l.027-2.768-.08-1.738c.916.195,1.858.44,2.667.71.189.097.269.27.162.442-.35.317-.647.612-.647.759v2.596h3.178v-2.522l-.053-2.033c1.051.244,1.885.465,2.856.759.161.049.269.27.108.442-.242.22-.835.539-.835.733v2.621h1.724l1.131-1.494c.108-.148.404-.171.512-.049.754.588,1.535,1.274,2.182,1.936.108.147.054.367-.161.367h-5.334v3.281l2.02-.024,1.158-1.421c.135-.099.324-.123.458-.026.781.663,1.239.981,2.102,1.837.135.172-.027.344-.162.392h-6.385c1.724,2.302,4.472,3.723,7.274,4.432l-.108.368ZM139.755,39.452c-.135.099-.351.073-.485.026-.486-.442-.808-1.151-1.159-1.642-.808-1.102-1.562-1.91-2.586-2.865l.216-.391c1.535.488,3.044,1.003,4.337,1.983.404.367.754.733.647,1.298-.135.686-.43,1.272-.969,1.591ZM140.267,43.566l-1.347,3.82c-.242,1.004-.565,1.936-.512,3.061,2.506-1.958,4.58-4.26,5.873-6.881h-4.014ZM150.261,43.566h-3.502c-.431.711-.943,1.422-1.428,2.108l.674.513h4.067l.647-.612c.215-.147.404-.073.592.147-.377-.711-.808-1.371-1.05-2.156ZM150.449,46.946h-4.688v2.572h4.688v-2.572ZM149.884,39.525h-3.125v3.281h3.125v-3.281Z" fill="#231f20"/>
      <path d="M195.06,41.705c.189-2.449.108-5.215-.08-7.738,1.212.194,2.424.415,3.61.686.135.073.242.244.135.391-.269.295-.835.319-.97.735l-.08,3.894-.162,2.033h6.977l1.185-1.714c.054-.123.377-.123.566,0,.916.612,1.832,1.298,2.721,2.031.053.099.053.246,0,.344l-.135.073h-9.94c.296,2.253,1.293,4.997,3.233,6.98,2.209,2.227,4.822,3.868,7.597,4.995l-.081.367-1.267-.049c-1.185-.048-2.101.539-2.963,1.224-4.66-3.549-7.246-8.203-7.516-13.517l-.35-.025c-.377,4.139-1.643,8.205-5.549,10.947-1.912,1.347-3.879,2.474-6.088,3.135l-.808.246-.242-.416c3.799-1.763,7.489-4.947,9.024-8.645.728-1.763.997-3.43,1.158-5.241h-7.192c-.701,0-1.428.099-2.344.246l-.727-.981h10.29Z" fill="#231f20"/>
      <path d="M259.982,45.696c-.403.198-.915.051-1.103.222-.998.588-1.886,1.151-2.774,1.837l-.459-.196c.431-.638.835-1.397,1.132-2.106h-18.049c-.027,1.005-.242,2.033-1.374,2.449-.376.196-.944.171-1.32-.073-.242-.22-.296-.539-.188-.832.161-.319.564-.465.807-.709.81-.81,1.429-1.69,1.456-2.817l.458-.024c.054.392.108.832.108,1.224h1.051l-.296-4.335c-.107-1.666-.296-2.938-.485-4.898.888.293,1.481.563,2.263.808,1.024-.564,2.074-1.177,2.937-2.082l1.562,1.617c.025.121-.054.27-.188.319-.89-.147-1.617.147-2.964.587l-1.293.418.08,1.566,1.374-.024.89-.929c.054-.099.322-.172.512,0,.646.464,1.051.906,1.615,1.468.62-.588,1.349-1.322,1.913-1.96-.485-.539-1.158-.931-1.778-1.272l.269-.319c.727.246,1.429.539,2.129.807.512-.709.997-1.371,1.454-2.105.647.319,1.268.709,1.859,1.175.054.049.081.147.027.22-.215.123-.512.123-.727.222l-1.32,1.151c.593.464,1.429,1.126,1.103,1.934-.107.293-.295.612-.673.636l1.293.858c.054.073.161.172.081.268-.217.198-.566.075-.836.172-.351.27-.727.491-1.078.759.702.392,1.483.735,1.697,1.397l.054.121c.081.491-.188.957-.646,1.25-.215.099-.432-.048-.592-.147-.513-.638-1.132-1.224-1.725-1.763l-.215.123c-1.105.636-2.291,1.347-3.503,1.837l-.351-.343c1.132-.686,2.156-1.47,3.125-2.352-.592-.442-1.049-.783-1.857-1.201l.161-.317c.944.22,1.644.515,2.452.759.593-.489.969-1.151,1.481-1.714-.324-.465-.674-.882-1.078-1.347-.566.442-2.074,1.468-3.177,2.058l-.378-.246.431-.418h-3.905l.159,2.376h1.295l.969-1.151c.08-.097.376-.048.457,0,.646.491,1.051.834,1.669,1.446.108.097.19.27.108.391l-.242.099h-4.174l.08,2.082h12.526l.19-1.96h-1.347c-.269,0-.807.097-1.212.171l-.566-.953h3.178l.244-2.376-1.617-.025c-.403,0-.727.099-1.185.172l-.81-.957h3.638l.188-1.837h-1.886c-.43,0-.996.099-1.401.172l-.646-.955,3.637-.024.89-.808c.054-.075.322-.049.403,0l1.912,1.076c.083.124.217.271.083.418-.271.319-.835.319-.971.709l-.727,7.176.566.024.861-.783c.081-.073.324-.124.459-.025.727.539,1.239.882,1.885,1.518.054.099.029.22-.054.293ZM259.875,51.109h-10.372v3.624c0,1.177-1.968,1.69-3.125,2.009-.108-.808-.647-1.617-1.508-1.936-.512-.244-1.078-.44-1.642-.636l.08-.515c1.132.222,2.235.466,3.447.491.244,0,.459-.147.513-.367v-2.671h-8.082c-.62,0-1.51.171-2.074.246l-.539-1.028h10.668v-.392l-.109-1.47c.566.172,1.132.344,1.671.539h.136c.537-.44.969-.88,1.48-1.371h-7.057c-.459,0-.915.073-1.59.22l-.646-1.027,9.885.022.944-.612c.134-.121.51-.147.7,0,.942.564,1.456.931,1.993,1.298.108.075.136.222.081.344-.108.194-.808.073-1.212.172-1.295.317-2.532.807-3.745,1.298.997.415-.296.537-.296.856v.123h6.924l1.078-1.103c.08-.073.242-.048.349-.024.781.539,1.293.834,2.154,1.468.163.148.083.442-.107.442Z" fill="#231f20"/>
      <path d="M89.093,71.895v9.777c0,1.588,0,2.098,1.841,2.098v.351h-6.798v-.351c1.841,0,1.841-.51,1.841-2.098v-9.777h-1.058c-1.489,0-2.312.472-2.841,2.765h-.353v-3.508h11.618v3.508h-.352c-.529-2.293-1.352-2.765-2.841-2.765h-1.058Z" fill="#231f20"/>
      <path d="M99.614,81.672c0,1.588,0,2.098,1.841,2.098v.351h-6.798v-.351c1.841,0,1.841-.51,1.841-2.098v-8.071c0-1.588,0-2.097-1.841-2.097v-.352h6.798v.352c-1.841,0-1.841.509-1.841,2.097v3.447h4.546v-3.447c0-1.588,0-2.097-1.841-2.097v-.352h6.799v.352c-1.842,0-1.842.509-1.842,2.097v8.071c0,1.588,0,2.098,1.842,2.098v.351h-6.799v-.351c1.841,0,1.841-.51,1.841-2.098v-3.78h-4.546v3.78Z" fill="#231f20"/>
      <path d="M115.052,77.185c2.254,0,2.449-1.292,2.763-3.074h.352v6.856h-.352c-.314-1.783-.509-3.076-2.763-3.076v3.487c0,1.645,0,1.999,1.352,1.999,1.842,0,4.154,0,5.133-3.37h.352l-.588,4.114h-11.206v-.351c1.841,0,1.841-.51,1.841-2.098v-8.071c0-1.588,0-2.097-1.841-2.097v-.352h10.854v3.839h-.353c-.568-2.899-1.901-3.096-4.467-3.096h-1.078v5.29Z" fill="#231f20"/>
      <path d="M137.445,71.152h4.467v.352c-1.744,0-1.822.627-1.822,2.234v5.682c0,1.84-.509,4.995-5.055,4.995-3.253,0-4.8-1.548-4.8-4.447v-6.368c0-1.588,0-2.097-1.841-2.097v-.352h6.798v.352c-1.841,0-1.841.509-1.841,2.097v7.033c0,1.449.47,2.82,2.703,2.82,2.469,0,3.213-2.114,3.213-3.878v-5.839c0-1.607-.079-2.234-1.822-2.234v-.352Z" fill="#231f20"/>
      <path d="M153.628,79.105h.039v-5.995c0-1.078-.529-1.606-1.842-1.606v-.352h4.409v.352c-1.313,0-1.841.528-1.841,1.606v11.306h-.314l-8.738-10.757h-.039v8.505c0,1.078.529,1.607,1.841,1.607v.351h-4.408v-.351c1.312,0,1.841-.529,1.841-1.607v-9.464c-.627-.804-.941-1.194-1.881-1.194v-.352h4.584l6.348,7.953Z" fill="#231f20"/>
      <path d="M162.112,81.672c0,1.588,0,2.098,1.842,2.098v.351h-6.799v-.351c1.841,0,1.841-.51,1.841-2.098v-8.071c0-1.588,0-2.097-1.841-2.097v-.352h6.799v.352c-1.842,0-1.842.509-1.842,2.097v8.071Z" fill="#231f20"/>
      <path d="M178.548,71.504c-1.077.158-1.508.901-2.37,2.801l-4.566,10.11h-.313l-5.133-11.854c-.176-.411-.47-.998-1.43-1.057v-.352h6.23v.352c-.784,0-1.586,0-1.586.666,0,.314.274.882.391,1.175l2.978,6.916,2.782-6.25c.293-.647.45-1.137.45-1.527,0-.864-.999-.981-1.704-.981v-.352h4.271v.352Z" fill="#231f20"/>
      <path d="M184.25,77.185c2.254,0,2.449-1.292,2.763-3.074h.352v6.856h-.352c-.314-1.783-.509-3.076-2.763-3.076v3.487c0,1.645,0,1.999,1.352,1.999,1.842,0,4.154,0,5.133-3.37h.352l-.588,4.114h-11.207v-.351c1.842,0,1.842-.51,1.842-2.098v-8.071c0-1.588,0-2.097-1.842-2.097v-.352h10.855v3.839h-.353c-.568-2.899-1.901-3.096-4.467-3.096h-1.078v5.29Z" fill="#231f20"/>
      <path d="M197.415,81.672c0,1.588,0,2.098,1.842,2.098v.351h-6.7v-.351c1.841,0,1.841-.51,1.841-2.098v-8.071c0-1.588,0-2.097-1.841-2.097v-.352h7.17c2.939,0,4.859,1.135,4.859,3.645,0,1.684-1.332,2.879-2.938,3.192l3.35,4.664c.509.725.784,1.118,1.548,1.118v.351h-4.075l-4.173-5.915h-.882v3.466ZM197.415,77.539h.941c2.312,0,3.017-1.137,3.017-2.723,0-2.057-.902-2.921-2.704-2.921h-1.254v5.644Z" fill="#231f20"/>
      <path d="M215.813,75.168h-.353c-.215-1.744-1.783-3.567-3.644-3.567-1.078,0-2.175.529-2.175,1.725,0,2.643,7.014,2.761,7.014,7.092,0,2.449-2.135,3.997-4.447,3.997-1.019,0-1.665-.196-2.567-.588-.196-.078-.509-.175-.725-.175-.45,0-.843.371-.98.764h-.352v-4.898h.352c.294,2.097,1.94,4.232,4.193,4.232,1.117,0,2.351-.666,2.351-1.901,0-2.997-6.916-2.881-6.916-7.269,0-2.194,1.881-3.721,3.977-3.721.941,0,1.548.175,2.371.587.274.137.568.293.882.293.528,0,.568-.469.666-.88h.353v4.31Z" fill="#231f20"/>
      <path d="M222.963,81.672c0,1.588,0,2.098,1.842,2.098v.351h-6.798v-.351c1.841,0,1.841-.51,1.841-2.098v-8.071c0-1.588,0-2.097-1.841-2.097v-.352h6.798v.352c-1.842,0-1.842.509-1.842,2.097v8.071Z" fill="#231f20"/>
      <path d="M233.502,71.895v9.777c0,1.588,0,2.098,1.843,2.098v.351h-6.798v-.351c1.84,0,1.84-.51,1.84-2.098v-9.777h-1.057c-1.489,0-2.312.472-2.84,2.765h-.354v-3.508h11.618v3.508h-.352c-.529-2.293-1.352-2.765-2.841-2.765h-1.059Z" fill="#231f20"/>
      <path d="M247.316,81.672c0,1.763,0,2.098,2.095,2.098v.351h-7.307v-.351c2.097,0,2.097-.335,2.097-2.098v-2.369l-3.252-5.879c-.863-1.567-1.116-1.92-2.076-1.92v-.352h6.209v.352c-.625,0-1.272,0-1.272.607,0,.312.411,1.019.568,1.293l2.529,4.624,2.586-4.35c.194-.333.606-1,.606-1.392,0-.666-.861-.783-1.429-.783v-.352h3.938v.352c-1.118,0-1.626,1.137-2.293,2.253l-2.997,4.997v2.918Z" fill="#231f20"/>
      <path d="M258.834,77.636c0-4.016,2.94-6.778,6.897-6.778s6.898,2.761,6.898,6.778-2.94,6.779-6.898,6.779-6.897-2.763-6.897-6.779ZM269.18,77.636c0-2.291-.432-6.035-3.449-6.035s-3.447,3.744-3.447,6.035.431,6.035,3.447,6.035,3.449-3.742,3.449-6.035Z" fill="#231f20"/>
      <path d="M278.898,81.672c0,1.588,0,2.098,1.84,2.098v.351h-6.797v-.351c1.841,0,1.841-.51,1.841-2.098v-8.071c0-1.588,0-2.097-1.841-2.097v-.352h10.952v3.839h-.354c-.568-2.899-1.901-3.096-4.466-3.096h-1.175v5.29c2.586,0,2.918-1.135,3.154-2.781h.352v6.563h-.352c-.236-1.939-.568-3.076-3.154-3.076v3.78Z" fill="#231f20"/>
      <path d="M296.157,81.672c0,1.588,0,2.098,1.841,2.098v.351h-6.798v-.351c1.843,0,1.843-.51,1.843-2.098v-8.071c0-1.588,0-2.097-1.843-2.097v-.352h6.798v.352c-1.841,0-1.841.509-1.841,2.097v3.447h4.546v-3.447c0-1.588,0-2.097-1.842-2.097v-.352h6.799v.352c-1.841,0-1.841.509-1.841,2.097v8.071c0,1.588,0,2.098,1.841,2.098v.351h-6.799v-.351c1.842,0,1.842-.51,1.842-2.098v-3.78h-4.546v3.78Z" fill="#231f20"/>
      <path d="M306.972,77.636c0-4.016,2.94-6.778,6.897-6.778s6.896,2.761,6.896,6.778-2.938,6.779-6.896,6.779-6.897-2.763-6.897-6.779ZM317.316,77.636c0-2.291-.431-6.035-3.447-6.035s-3.449,3.744-3.449,6.035.431,6.035,3.449,6.035,3.447-3.742,3.447-6.035Z" fill="#231f20"/>
      <path d="M332.913,79.105h.038v-5.995c0-1.078-.529-1.606-1.841-1.606v-.352h4.409v.352c-1.314,0-1.841.528-1.841,1.606v11.306h-.314l-8.737-10.757h-.04v8.505c0,1.078.529,1.607,1.841,1.607v.351h-4.407v-.351c1.311,0,1.84-.529,1.84-1.607v-9.464c-.627-.804-.941-1.194-1.88-1.194v-.352h4.584l6.349,7.953Z" fill="#231f20"/>
      <path d="M349.506,75.422h-.352c-.724-2.135-2.468-3.82-4.799-3.82-3.332,0-4.155,3.371-4.155,6.075,0,2.821.647,5.995,4.134,5.995.725,0,1.373-.118,2.116-.392v-2.156c0-1.586,0-2.095-1.841-2.095v-.354h6.408v.354c-1.55,0-1.55.509-1.55,2.095v2.215c-1.646,1-4.31,1.078-5.523,1.078-4.193,0-7.191-2.801-7.191-6.603,0-4.056,3.192-6.955,7.17-6.955,1.43,0,2.272.234,2.881.469.606.236.979.472,1.39.472.529,0,.784-.529.96-.941h.352v4.563Z" fill="#231f20"/>
      <path d="M361.908,78.362v3.31c0,1.588,0,2.098,1.607,2.098v.351h-6.564v-.351c1.841,0,1.841-.51,1.841-2.098v-8.071c0-1.588,0-2.097-1.841-2.097v-.352h6.484v.352c-1.527,0-1.527.509-1.527,2.097v3.801l4.624-3.744c.88-.724,1.194-1.057,1.194-1.448,0-.628-.764-.706-1.449-.706v-.352h5.054v.352c-.861,0-1.39.391-2.35,1.175l-4.292,3.449,4.41,5.525c1.057,1.333,1.763,2.117,2.88,2.117v.351h-6.741v-.351c.335,0,1.02-.061,1.02-.569,0-.451-.746-1.331-1.04-1.685l-2.82-3.546-.489.392Z" fill="#231f20"/>
      <path d="M371.746,77.636c0-4.016,2.94-6.778,6.898-6.778s6.897,2.761,6.897,6.778-2.94,6.779-6.897,6.779-6.898-2.763-6.898-6.779ZM382.092,77.636c0-2.291-.432-6.035-3.449-6.035s-3.447,3.744-3.447,6.035.431,6.035,3.447,6.035,3.449-3.742,3.449-6.035Z" fill="#231f20"/>
      <path d="M397.687,79.105h.038v-5.995c0-1.078-.528-1.606-1.84-1.606v-.352h4.407v.352c-1.312,0-1.84.528-1.84,1.606v11.306h-.316l-8.737-10.757h-.038v8.505c0,1.078.529,1.607,1.84,1.607v.351h-4.407v-.351c1.312,0,1.842-.529,1.842-1.607v-9.464c-.627-.804-.941-1.194-1.88-1.194v-.352h4.582l6.349,7.953Z" fill="#231f20"/>
      <path d="M414.281,75.422h-.354c-.724-2.135-2.468-3.82-4.799-3.82-3.331,0-4.153,3.371-4.153,6.075,0,2.821.646,5.995,4.134,5.995.724,0,1.371-.118,2.116-.392v-2.156c0-1.586,0-2.095-1.841-2.095v-.354h6.406v.354c-1.548,0-1.548.509-1.548,2.095v2.215c-1.646,1-4.31,1.078-5.525,1.078-4.193,0-7.191-2.801-7.191-6.603,0-4.056,3.193-6.955,7.172-6.955,1.429,0,2.272.234,2.879.469.608.236.979.472,1.39.472.529,0,.784-.529.96-.941h.354v4.563Z" fill="#231f20"/>
    </g>
  </g>
  <g>
    <polygon points="480.661 75.496 480.661 36.714 468.955 48.721 472.8 48.721 472.8 82.741 480.661 75.496" fill="#bc955c"/>
    <polygon points="489.979 66.829 497.841 59.584 497.841 20.426 486.134 32.433 489.979 32.433 489.979 66.829" fill="#bc955c"/>
    <polygon points="515.053 28.128 531.921 28.128 540.461 20.267 507.192 20.267 507.192 50.989 515.053 43.691 515.053 28.128" fill="#bc955c"/>
    <path d="M528.685,34.765l-5.907,5.455c7.444,5.04,12.346,13.562,12.346,23.208,0,15.444-12.565,28.007-28.009,28.007-.005,0-.009,0-.014,0h0s-.008,0-.008,0c-.001,0-.003,0-.004,0h0s-6.343-.028-6.343-.028l.008,7.881,6.322.028c.013,0,.026,0,.038,0,19.789,0,35.889-16.099,35.889-35.888,0-11.7-5.629-22.107-14.32-28.663Z" fill="#bc955c"/>
    <polygon points="491.649 94.067 486.075 91.623 480.503 94.067 480.502 94.067 480.544 99.287 491.691 99.287 491.649 94.067 491.649 94.067" fill="#bc955c"/>
    <polygon points="486.064 89.548 486.063 89.548 479.957 92.295 480.486 92.298 480.486 93.473 486.063 91.029 491.641 93.473 491.641 92.298 492.171 92.295 486.064 89.548 486.064 89.548" fill="#bc955c"/>
    <polygon points="484.892 81.067 486.08 79.848 487.267 81.067 488.92 81.067 489.085 79.823 488.785 79.823 488.785 78.827 488.249 78.827 488.249 78.524 487.9 78.524 487.9 76.155 486.357 76.155 486.357 78.49 485.783 78.49 485.783 76.155 484.24 76.155 484.24 78.524 483.891 78.524 483.891 78.827 483.355 78.827 483.355 79.823 483.073 79.823 483.239 81.067 484.892 81.067" fill="#bc955c"/>
    <path d="M484.121,75.758h.772l1.187-1.128,1.188,1.128h.772l.163-.775-.015-.002h.014v-.448h-.755v-.931h-.124v-1.738h.131v-.397h-.433v-.483h0c0-.437-.298-.8-.7-.909l-.133-.159v-.071h.143l-.143-.171v-2.762h-.217v2.762l-.143.17h.143v.071l-.13.155c-.408.105-.711.472-.712.913h0v.483h-.424v.397h.118v1.738h-.115v.931h-.755v.448h.002l.167.778Z" fill="#bc955c"/>
    <path d="M479.623,90.989l3.603-1.777v-1.368l-6.52,3.215h.658v.393h-1.114v-1.361h.131v-.397h-.433v-.483h0c0-.439-.299-.808-.704-.914l-.131-.156v-.069h.145l-.145-.173v-1.552h-.217v1.556l-.141.168h.141v.073l-.125.149c-.411.103-.715.474-.715.917h0v.483h-.424v.397h.118v1.361h-.941v7.835h6.855l-.04-7.815v-.483Z" fill="#bc955c"/>
    <path d="M498.423,90.092h.118v-.397h-.424v-.483h0c0-.443-.305-.814-.715-.917l-.129-.154v-.068h.146l-.146-.174v-1.55h-.217v1.557l-.14.167h.14v.074l-.126.15c-.405.107-.704.476-.704.914v.483h-.433v.397h.131v1.361h-1.114v-.393h.658l-6.519-3.215v1.368l3.603,1.777.045,8.298h6.791v-7.835h-.961v-1.361Z" fill="#bc955c"/>
    <path d="M486.08,80.569l-1.168,1.168h-1.364v8.349l2.519-1.136,2.554,1.139-.011-8.352h-1.361l-1.168-1.168ZM486.065,84.457c-.717,0-1.298-.581-1.298-1.298s.581-1.298,1.298-1.298,1.298.581,1.298,1.298-.581,1.298-1.298,1.298Z" fill="#bc955c"/>
    <polygon points="500.602 69.789 505.571 69.789 505.571 74.712 507.483 74.712 507.483 63.795 505.571 63.795 505.571 68.138 500.602 68.138 500.602 63.795 498.691 63.795 498.691 74.712 500.602 74.712 500.602 69.789" fill="#bc955c"/>
    <polygon points="519.21 74.712 514.546 68.153 518.904 63.795 516.549 63.795 511.687 68.764 511.687 63.795 509.776 63.795 509.776 74.712 511.687 74.712 511.687 71.043 513.247 69.499 516.824 74.712 519.21 74.712" fill="#bc955c"/>
    <path d="M526.442,74.712c.55-.173,1.022-.436,1.414-.787.392-.352.696-.787.91-1.307.214-.52.321-1.132.321-1.835v-6.987h-1.911v6.36c0,.367-.018.739-.054,1.116-.036.377-.138.716-.306,1.017-.168.301-.423.548-.764.741-.342.194-.823.291-1.445.291s-1.104-.096-1.445-.291c-.342-.193-.596-.441-.764-.741-.168-.3-.27-.639-.306-1.017-.036-.377-.054-.749-.054-1.116v-6.36h-1.911v6.987c0,.703.107,1.315.321,1.835.214.52.517.956.91,1.307.392.352.864.614,1.414.787.55.173,1.162.26,1.835.26s1.284-.087,1.835-.26Z" fill="#bc955c"/>
  </g>
  <rect x="442.099" y="20.31" width=".665" height="79.049" fill="#231f20"/>
</svg>